<?xml version="1.0" encoding="UTF-8"?>
<svg version="1.1" xmlns="http://www.w3.org/2000/svg" width="722" height="345">
<path d="M0 0 C8.60595739 8.20820305 10.35923304 20.22681228 10.69165039 31.6706543 C10.78945426 37.69885026 10.80139247 43.72729363 10.80569458 49.75619507 C10.8416878 70.21793875 10.98947301 90.08787286 15.99438477 110.02612305 C16.55400289 113.2293587 16.50483292 116.31784834 16.4375 119.5625 C11.36553651 119.66134645 6.294133 119.73395653 1.22143555 119.78222656 C-0.50424973 119.80234739 -2.22986678 119.82964748 -3.95532227 119.86425781 C-6.4352297 119.91275758 -8.91423628 119.93546304 -11.39453125 119.953125 C-12.16650345 119.97377014 -12.93847565 119.99441528 -13.73384094 120.01568604 C-19.09248187 120.01793299 -19.09248187 120.01793299 -21.51367188 117.671875 C-23.15726803 114.36631849 -24.34219913 111.04907392 -25.5625 107.5625 C-26.408125 108.243125 -27.25375 108.92375 -28.125 109.625 C-31.85914587 112.29224705 -35.86100946 114.29714295 -40 116.25 C-40.93017944 116.69581421 -40.93017944 116.69581421 -41.87915039 117.15063477 C-49.00520429 120.43736055 -55.72027376 121.92277982 -63.5625 121.8125 C-64.26383057 121.80573242 -64.96516113 121.79896484 -65.68774414 121.79199219 C-70.71203008 121.6914012 -74.83357399 121.22177228 -79.5625 119.5625 C-80.26246094 119.31757813 -80.96242188 119.07265625 -81.68359375 118.8203125 C-91.05747571 115.14874002 -98.63499773 109.01966521 -103.4453125 100.1328125 C-107.73423183 90.2652988 -108.11576003 77.72511614 -104.5625 67.5625 C-97.76108199 54.07116263 -89.59036586 46.90928452 -75.39599609 41.77954102 C-68.62352186 39.57913507 -61.87623449 38.63083097 -54.8125 37.875 C-53.67248535 37.74762451 -52.5324707 37.62024902 -51.35791016 37.48901367 C-43.3903726 36.64300894 -35.57679063 36.16907119 -27.5625 36.5625 C-28.3084842 28.5001826 -28.3084842 28.5001826 -31.875 21.4375 C-37.42461123 17.56567821 -42.10078273 17.20477487 -48.6875 17.25 C-49.53916748 17.25563965 -50.39083496 17.2612793 -51.26831055 17.26708984 C-62.15613046 17.47653081 -70.81494987 20.90987715 -80.59375 25.453125 C-83.5625 26.5625 -83.5625 26.5625 -86.5625 25.5625 C-87.71337891 23.70825195 -87.71337891 23.70825195 -88.7890625 21.30078125 C-89.1809375 20.42873047 -89.5728125 19.55667969 -89.9765625 18.65820312 C-90.37617188 17.73974609 -90.77578125 16.82128906 -91.1875 15.875 C-91.59484375 14.97587891 -92.0021875 14.07675781 -92.421875 13.15039062 C-94.42370341 8.63301957 -96.08416012 4.53558528 -96.5625 -0.4375 C-66.43903965 -14.20380537 -28.23990415 -22.76907401 0 0 Z M-44.125 64.375 C-45.19911133 64.48038086 -45.19911133 64.48038086 -46.29492188 64.58789062 C-53.90556653 65.45352355 -59.38094244 67.64071994 -64.5625 73.5625 C-67.24718038 77.58952057 -67.24437737 80.8309363 -66.5625 85.5625 C-64.41052519 89.17474343 -62.41607958 91.00223741 -58.5625 92.5625 C-51.53898803 93.65119253 -45.79986293 93.2705586 -39.6875 89.5 C-37.95526476 88.21921114 -36.24499577 86.90796164 -34.5625 85.5625 C-33.82386719 85.06878906 -33.08523438 84.57507813 -32.32421875 84.06640625 C-30.06593293 82.32404144 -28.86032359 81.11921247 -27.5625 78.5625 C-26.99557993 73.48646563 -27.15053033 68.64345925 -27.5625 63.5625 C-33.15423737 63.48054669 -38.57116114 63.73668549 -44.125 64.375 Z " fill="#DC661C" transform="translate(435.5625,140.4375)"/>
<path d="M0 0 C48.84 0 97.68 0 148 0 C148 10.56 148 21.12 148 32 C147.67 32.33 147.34 32.66 147 33 C129.51 33 112.02 33 94 33 C94 76.89 94 120.78 94 166 C80.8 166 67.6 166 54 166 C53 165 53 165 52.87695217 162.81545925 C52.87787396 161.84296765 52.87879576 160.87047606 52.87974548 159.86851501 C52.87837082 158.75647202 52.87699615 157.64442902 52.87557983 156.49868774 C52.88097275 154.65263443 52.88097275 154.65263443 52.88647461 152.76928711 C52.88632858 151.48166977 52.88618256 150.19405243 52.8860321 148.86741638 C52.88574414 145.3262524 52.89164064 141.78512201 52.89860606 138.24396586 C52.90483983 134.54705012 52.90544342 130.85013369 52.90663147 127.1532135 C52.90974472 120.14796101 52.91795801 113.14272405 52.92798096 106.13747841 C52.9391423 98.16421124 52.9446526 90.19094335 52.94967639 82.21767032 C52.96014063 65.81177111 52.97773995 49.40588753 53 33 C52.02614098 33.00333092 52.02614098 33.00333092 51.03260803 33.00672913 C44.30112252 33.02878002 37.56964719 33.04390577 30.83813477 33.05493164 C28.32283105 33.05997363 25.80753028 33.06680703 23.29223633 33.07543945 C19.68570225 33.08751094 16.07920677 33.09322949 12.47265625 33.09765625 C10.77424339 33.10539818 10.77424339 33.10539818 9.04151917 33.11329651 C8.00051559 33.11337204 6.95951202 33.11344757 5.88696289 33.11352539 C4.50463219 33.11685631 4.50463219 33.11685631 3.09437561 33.12025452 C1 33 1 33 0 32 C0 21.44 0 10.88 0 0 Z " fill="#77D83E" transform="translate(88,94)"/>
<path d="M0 0 C8.19460325 6.70467538 14.42544936 14.96870186 16 25.75 C16.061875 26.678125 16.12375 27.60625 16.1875 28.5625 C10.73788154 30.7104352 5.39494877 32.38798981 -0.3125 33.6875 C-1.37404297 33.94080078 -1.37404297 33.94080078 -2.45703125 34.19921875 C-7.2266562 35.30660882 -11.94556778 36.02538361 -16.8125 36.5625 C-17.65098804 35.10712432 -18.48313934 33.64809627 -19.3125 32.1875 C-20.00859375 30.96933594 -20.00859375 30.96933594 -20.71875 29.7265625 C-21.8125 27.5625 -21.8125 27.5625 -21.8125 25.5625 C-31.03398363 20.76732851 -38.49644424 19.31960172 -48.8125 20.5625 C-56.02176707 23.19129352 -60.37828345 28.90432505 -63.8125 35.5625 C-68.60204172 48.56268466 -68.12520549 64.27081645 -62.78125 77.0234375 C-59.45531095 82.88877596 -54.22535846 87.42488051 -47.8125 89.5625 C-36.06683405 90.49424574 -36.06683405 90.49424574 -25.8125 85.5625 C-21.59428084 81.11261663 -18.95171296 76.2670679 -16.8125 70.5625 C-10.34089801 71.08357332 -4.78662369 72.31875251 1.3125 74.5 C2.83544858 75.03135133 4.35888035 75.56131995 5.8828125 76.08984375 C6.6037207 76.3410498 7.32462891 76.59225586 8.06738281 76.85107422 C11.08077591 77.86224735 14.12270905 78.72110514 17.1875 79.5625 C16.18693102 90.41867345 10.29203749 101.79730605 2.14453125 109.1171875 C-15.4099569 122.08157994 -35.32924606 124.43436873 -56.4609375 122.171875 C-59.39426716 121.53097944 -62.01930291 120.66626337 -64.8125 119.5625 C-65.44671875 119.32563477 -66.0809375 119.08876953 -66.734375 118.84472656 C-80.1306607 113.72808966 -91.84155816 105.31524543 -98.96484375 92.53125 C-100.30581421 89.41673796 -101.27393567 86.23348969 -102.13671875 82.95703125 C-102.76174287 80.53612054 -102.76174287 80.53612054 -103.82421875 78.23828125 C-105.07287198 74.8575403 -105.5268525 71.49560004 -105.9375 67.9375 C-106.0209668 67.22674316 -106.10443359 66.51598633 -106.19042969 65.78369141 C-108.31178577 46.64386436 -105.67493757 26.37785998 -93.64453125 10.73046875 C-93.03996094 10.01503906 -92.43539063 9.29960937 -91.8125 8.5625 C-91.21824219 7.85738281 -90.62398438 7.15226562 -90.01171875 6.42578125 C-67.53965018 -18.00038024 -25.67821624 -19.07647116 0 0 Z " fill="#DB661C" transform="translate(570.8125,139.4375)"/>
<path d="M0 0 C0.12812705 12.04394251 -0.20446163 23.98168818 -1 36 C-1.72703125 35.97679687 -2.4540625 35.95359375 -3.203125 35.9296875 C-12.43794928 35.76393424 -20.98292969 37.183494 -30 39 C-30 39.66 -30 40.32 -30 41 C-31.55136779 42.06878582 -33.14262492 43.07995714 -34.75 44.0625 C-40.10516186 47.75884935 -42.41935869 50.72450596 -44 57 C-45.08499628 66.2842972 -45.12775734 75.6146869 -45.0625 84.94921875 C-45.05871338 86.20966507 -45.05492676 87.47011139 -45.05102539 88.76875305 C-45.03893921 92.74170015 -45.02046341 96.71458985 -45 100.6875 C-44.97311794 105.96223418 -44.95347987 111.23693726 -44.9375 116.51171875 C-44.92920166 117.72099533 -44.92090332 118.93027191 -44.91235352 120.17619324 C-44.90739868 121.84987724 -44.90739868 121.84987724 -44.90234375 123.55737305 C-44.89710693 124.53884811 -44.89187012 125.52032318 -44.88647461 126.53153992 C-45 129 -45 129 -46 132 C-58.54 132 -71.08 132 -84 132 C-84 88.77 -84 45.54 -84 1 C-71.79 1 -59.58 1 -47 1 C-45.00383446 2.99616554 -45.59016573 6.81701963 -45.4375 9.5625 C-45.39431641 10.27341797 -45.35113281 10.98433594 -45.30664062 11.71679688 C-45.20028223 13.47761912 -45.09961154 15.2387832 -45 17 C-44.25363281 16.24847656 -43.50726563 15.49695313 -42.73828125 14.72265625 C-32.59419504 4.63645355 -15.21621029 -7.60810515 0 0 Z " fill="#E1681D" transform="translate(328,128)"/>
<path d="M0 0 C48.84 0 97.68 0 148 0 C148 10.56 148 21.12 148 32 C147.67 32.33 147.34 32.66 147 33 C129.51 33 112.02 33 94 33 C94 76.89 94 120.78 94 166 C92.35 166 90.7 166 89 166 C90.32 165.67 91.64 165.34 93 165 C92.88844516 157.16643289 92.76167491 149.33316835 92.625 141.5 C92.6045462 140.32744659 92.58409241 139.15489319 92.5630188 137.94680786 C92.32033839 124.57810367 91.97175391 111.26950801 90.9375 97.9375 C89.25905177 76.01540196 89.82430484 53.96946467 90 32 C93.50573187 30.41627885 96.20993655 29.75537971 100.04980469 29.78881836 C101.02721619 29.79219711 102.00462769 29.79557587 103.01165771 29.79905701 C104.05452942 29.81251663 105.09740112 29.82597626 106.171875 29.83984375 C107.25003479 29.84504532 108.32819458 29.85024689 109.43902588 29.85560608 C112.8761553 29.87339657 116.31298472 29.90458576 119.75 29.9375 C123.20126755 29.9650737 126.6524947 29.98976414 130.1038208 30.00868225 C132.25062829 30.02098819 134.39741273 30.03863845 136.54412842 30.06199646 C137.50893127 30.06852737 138.47373413 30.07505829 139.46777344 30.08178711 C140.74754059 30.09416664 140.74754059 30.09416664 142.05316162 30.10679626 C144.00556636 30.21687172 144.00556636 30.21687172 145 29 C145.15825258 27.00217874 145.25119171 24.99911166 145.31640625 22.99609375 C145.35830078 21.78115234 145.40019531 20.56621094 145.44335938 19.31445312 C145.48267578 18.03505859 145.52199219 16.75566406 145.5625 15.4375 C145.62727539 13.51260742 145.62727539 13.51260742 145.69335938 11.54882812 C145.799848 8.36600147 145.90185962 5.18309326 146 2 C127.6331135 2.10709896 109.26627075 2.2198348 90.89946079 2.33933926 C82.37203423 2.39469093 73.84460349 2.44817606 65.31713867 2.49731445 C57.88731118 2.54013254 50.45751475 2.58640443 43.02773517 2.63687855 C39.09128504 2.6634987 35.15484115 2.68835216 31.21835518 2.70907402 C27.51743655 2.7286103 23.81657712 2.75274484 20.11571121 2.78049088 C18.10131571 2.79437157 16.08688802 2.8033009 14.07246399 2.81211853 C12.8846936 2.82190735 11.69692322 2.83169617 10.47315979 2.84178162 C8.91486875 2.85146044 8.91486875 2.85146044 7.32509708 2.8613348 C5.03921798 2.7395298 5.03921798 2.7395298 4 4 C2.98307011 9.89819338 3.10792408 15.08999705 4 21 C3.7397104 23.34260643 3.42579972 25.6817571 3 28 C4.65 28 6.3 28 8 28 C8 28.66 8 29.32 8 30 C18.56 30 29.12 30 40 30 C40 29.34 40 28.68 40 28 C41.98 28 43.96 28 46 28 C46 27.34 46 26.68 46 26 C46.99 26 47.98 26 49 26 C50 29 50 29 50 30 C52.16874252 29.49396008 53.99967627 29.00016187 56 28 C55.6875 29.9375 55.6875 29.9375 55 32 C52.03165435 32.98944855 50.09001436 33.12664617 46.99365234 33.12939453 C45.97604828 33.13254669 44.95844421 33.13569885 43.91000366 33.13894653 C42.81306183 33.1369223 41.71612 33.13489807 40.5859375 33.1328125 C38.89786484 33.13424759 38.89786484 33.13424759 37.1756897 33.13571167 C34.7968134 33.13639238 32.41793524 33.13454568 30.0390625 33.13037109 C26.38277047 33.12501139 22.72660074 33.13032492 19.0703125 33.13671875 C16.76302056 33.13605815 14.4557287 33.13477735 12.1484375 33.1328125 C11.0474472 33.13483673 9.94645691 33.13686096 8.81210327 33.13894653 C7.29515366 33.13421829 7.29515366 33.13421829 5.74755859 33.12939453 C4.8528183 33.12859894 3.958078 33.12780334 3.03622437 33.12698364 C1 33 1 33 0 32 C0 21.44 0 10.88 0 0 Z " fill="#8FD960" transform="translate(88,94)"/>
<path d="M0 0 C12.21 0 24.42 0 37 0 C38.99616554 1.99616554 38.40983427 5.81701963 38.5625 8.5625 C38.60568359 9.27341797 38.64886719 9.98433594 38.69335938 10.71679688 C38.79971777 12.47761912 38.90038846 14.2387832 39 16 C39.763125 15.21625 40.52625 14.4325 41.3125 13.625 C44 11 44 11 47 9 C46.690625 9.5775 46.38125 10.155 46.0625 10.75 C44.92922397 12.9207821 44.92922397 12.9207821 44.5625 15.125 C44 17 44 17 41 19 C39.80767387 21.05003955 39.80767387 21.05003955 39 23 C38.01 22.67 37.02 22.34 36 22 C34.8517315 19.703463 34.88438825 18.41686833 34.90234375 15.8671875 C34.90484131 15.14128418 34.90733887 14.41538086 34.90991211 13.66748047 C34.91901611 12.74596191 34.92812012 11.82444336 34.9375 10.875 C34.9684375 6.481875 34.9684375 6.481875 35 2 C24.11 2 13.22 2 2 2 C1.52565835 10.10402133 1.52565835 10.10402133 3 14 C3.0960597 16.56530889 3.13645271 19.1031781 3.12939453 21.66845703 C3.13114685 22.44757446 3.13289917 23.22669189 3.13470459 24.02941895 C3.1391073 26.60557276 3.13619124 29.18165799 3.1328125 31.7578125 C3.13348586 33.54474908 3.13445615 35.33168556 3.13571167 37.11862183 C3.13718638 40.8627815 3.13504082 44.60691732 3.13037109 48.35107422 C3.1246657 53.16113234 3.12795936 57.97113478 3.13394356 62.78119087 C3.13754824 66.46992415 3.13641116 70.15864411 3.13381577 73.84737778 C3.13314666 75.62168255 3.13397433 77.39598852 3.13629532 79.1702919 C3.13882121 81.64367147 3.13498255 84.11695933 3.12939453 86.59033203 C3.13141876 87.3300827 3.13344299 88.06983337 3.13552856 88.83200073 C3.11426439 93.88573561 3.11426439 93.88573561 2 95 C1.84005297 97.591294 1.74053662 100.15973375 1.68359375 102.75390625 C1.66494263 103.44093628 1.6462915 104.12796631 1.6270752 104.83581543 C1.55858812 107.41124158 1.49856053 109.98688707 1.4375 112.5625 C1.293125 118.316875 1.14875 124.07125 1 130 C12.55 130 24.1 130 36 130 C35.63289541 122.37147571 35.63289541 122.37147571 35.25170898 114.74365234 C35.20860596 113.78410645 35.16550293 112.82456055 35.12109375 111.8359375 C35.0739624 110.86188965 35.02683105 109.8878418 34.97827148 108.88427734 C35 106 35 106 35.48632812 103.28710938 C36.20237374 98.70496196 36.12272346 94.20053237 36.09765625 89.5703125 C36.0962413 88.57998016 36.09482635 87.58964783 36.09336853 86.56930542 C36.08779252 83.42117227 36.07524442 80.27311148 36.0625 77.125 C36.0574819 74.98437603 36.05291954 72.84375094 36.04882812 70.703125 C36.03783094 65.46872551 36.02111675 60.23436793 36 55 C36.99 55 37.98 55 39 55 C39 53.35 39 51.7 39 50 C39.66 50 40.32 50 41 50 C41 49.01 41 48.02 41 47 C41.66 47 42.32 47 43 47 C42.525625 48.19625 42.05125 49.3925 41.5625 50.625 C38.0667121 61.14632636 38.86084438 72.98425569 38.9375 83.94921875 C38.94128662 85.20966507 38.94507324 86.47011139 38.94897461 87.76875305 C38.96106079 91.74170015 38.97953659 95.71458985 39 99.6875 C39.02688206 104.96223418 39.04652013 110.23693726 39.0625 115.51171875 C39.07079834 116.72099533 39.07909668 117.93027191 39.08764648 119.17619324 C39.09260132 120.84987724 39.09260132 120.84987724 39.09765625 122.55737305 C39.10289307 123.53884811 39.10812988 124.52032318 39.11352539 125.53153992 C39 128 39 128 38 131 C25.46 131 12.92 131 0 131 C0 87.77 0 44.54 0 0 Z " fill="#D47F4B" transform="translate(244,129)"/>
<path d="M0 0 C-0.66 0.33 -1.32 0.66 -2 1 C-3.11375 0.401875 -4.2275 -0.19625 -5.375 -0.8125 C-10.63716263 -3.61833949 -16.1447008 -4.25832877 -22 -5 C-22 -5.66 -22 -6.32 -22 -7 C-44.88502869 -7.56102205 -44.88502869 -7.56102205 -65 1 C-66.99220557 1.68960962 -68.99105606 2.36079057 -71 3 C-71.33 3.66 -71.66 4.32 -72 5 C-72.66 5 -73.32 5 -74 5 C-75.84463905 7.46254769 -77.47783741 10.03401292 -79.1484375 12.6171875 C-81.05383961 15.06928726 -82.24840999 15.74625133 -85 17 C-87.83794211 20.04177221 -89.74945131 23.24835394 -91.0625 27.1875 C-92.13738848 30.41216543 -93.63395849 31.63395849 -96 34 C-96.79681318 36.64184541 -96.79681318 36.64184541 -97 39 C-97.66 39 -98.32 39 -99 39 C-100.74783072 61.891359 -100.74783072 61.891359 -95 83 C-94.8125 85.8125 -94.8125 85.8125 -95 88 C-94.34 88 -93.68 88 -93 88 C-92.01 91.96 -91.02 95.92 -90 100 C-93.82551742 96.17448258 -94.66269427 94.93480439 -96.125 90.0625 C-97.42436702 85.77088792 -97.42436702 85.77088792 -99.046875 81.59765625 C-100.27641393 78.24665876 -100.71821688 74.89961671 -101.125 71.375 C-101.2084668 70.66424316 -101.29193359 69.95348633 -101.37792969 69.22119141 C-103.49928577 50.08136436 -100.86243757 29.81535998 -88.83203125 14.16796875 C-88.22746094 13.45253906 -87.62289063 12.73710937 -87 12 C-86.40574219 11.29488281 -85.81148438 10.58976562 -85.19921875 9.86328125 C-64.45722227 -12.68236709 -25.33016969 -15.6854157 0 0 Z " fill="#E66F27" transform="translate(566,136)"/>
<path d="M0 0 C2.4375 0.75 2.4375 0.75 5 2 C5.625 4 5.625 4 6 6 C6.99 6.66 7.98 7.32 9 8 C10.32 7.34 11.64 6.68 13 6 C13.37125 7.11375 13.7425 8.2275 14.125 9.375 C15.38227414 12.25043253 15.78357078 12.87632616 18.625 14.5 C22.22299913 15.03303691 25.06788553 14.74239386 28.63671875 14.2265625 C31.8026712 13.9230497 34.72348414 14.31792722 37.86328125 14.734375 C42.81865111 15.35039904 46.64956909 15.52605666 51 13 C51.969375 12.731875 52.93875 12.46375 53.9375 12.1875 C57.17603198 11.16874403 57.17603198 11.16874403 59.5625 8.4375 C62.25394642 5.74605358 63.37832902 5.57184279 67 5 C68.02019573 4.0206121 69.02149805 3.02104551 70 2 C72.51578949 1.13519736 74.30646447 1 77 1 C77.89621015 3.68863046 78.47095006 6.22248781 79 9 C79.495 11.475 79.495 11.475 80 14 C90.56 14 101.12 14 112 14 C112 11.69 112 9.38 112 7 C112.495 8.485 112.495 8.485 113 10 C113.66 10 114.32 10 115 10 C115 12.31 115 14.62 115 17 C109.92803651 17.09884645 104.856633 17.17145653 99.78393555 17.21972656 C98.05825027 17.23984739 96.33263322 17.26714748 94.60717773 17.30175781 C92.1272703 17.35025758 89.64826372 17.37296304 87.16796875 17.390625 C86.39599655 17.41127014 85.62402435 17.43191528 84.82865906 17.45318604 C79.47001813 17.45543299 79.47001813 17.45543299 77.04882812 15.109375 C75.40523197 11.80381849 74.22030087 8.48657392 73 5 C72.154375 5.680625 71.30875 6.36125 70.4375 7.0625 C66.70335413 9.72974705 62.70149054 11.73464295 58.5625 13.6875 C57.94238037 13.98470947 57.32226074 14.28191895 56.68334961 14.58813477 C49.55729571 17.87486055 42.84222624 19.36027982 35 19.25 C34.29866943 19.24323242 33.59733887 19.23646484 32.87475586 19.22949219 C21.79335393 19.00763197 9.88102015 15.18932412 2 7 C0.82617697 4.57929441 0.43054918 2.69093237 0 0 Z " fill="#AB572A" transform="translate(337,243)"/>
<path d="M0 0 C0.99 0 1.98 0 3 0 C0.84815794 7.65099397 -5.67253876 13.43638022 -12.19921875 17.55078125 C-29.05719966 26.27366956 -50.59431304 29.95837446 -69.05859375 24.1796875 C-73.07487764 22.56890697 -77.05436843 20.90237874 -81 19.125 C-81.7314624 18.79757813 -82.4629248 18.47015625 -83.21655273 18.1328125 C-87.56078684 16.06012958 -90.25416391 14.1044529 -93 10 C-87.27789404 11.86763181 -81.62338249 13.85289032 -76 16 C-76 16.99 -76 17.98 -76 19 C-72.04 19.33 -68.08 19.66 -64 20 C-64 20.66 -64 21.32 -64 22 C-59.47922138 22.05834421 -54.95854047 22.09371252 -50.4375 22.125 C-49.16068359 22.14175781 -47.88386719 22.15851563 -46.56835938 22.17578125 C-40.26432952 22.20852946 -34.9539451 22.0640343 -29 20 C-26.37170169 19.74340184 -23.77510638 19.62795152 -21.13671875 19.5390625 C-20.43160156 19.36117187 -19.72648438 19.18328125 -19 19 C-17.81760202 17.05198433 -17.81760202 17.05198433 -17 15 C-15.8553125 14.566875 -15.8553125 14.566875 -14.6875 14.125 C-11.90012472 12.95819174 -11.18003436 12.2333292 -9.375 9.9375 C-7 7 -7 7 -4 6 C-3.34 4.989375 -2.68 3.97875 -2 2.9375 C-1.34 1.968125 -0.68 0.99875 0 0 Z " fill="#A85628" transform="translate(578,236)"/>
<path d="M0 0 C10.24431197 12.16097813 6.44242785 35.3832392 6.43579102 50.1027832 C6.45003954 64.75691509 6.97543952 78.83799356 9.69371033 93.27009583 C9.87478836 94.23179184 10.05586639 95.19348785 10.24243164 96.18432617 C10.4962838 97.4405201 10.4962838 97.4405201 10.75526428 98.72209167 C11.0111686 101.10395318 10.72966535 102.73504927 10 105 C9.34 104.67 8.68 104.34 8 104 C7.18276288 101.13504422 6.51896397 98.35309103 5.9375 95.4375 C5.67199341 94.11600952 5.67199341 94.11600952 5.40112305 92.76782227 C3.55882888 82.81873954 3.33468644 72.87880664 3.11376953 62.78881836 C3.00064101 60.01571295 2.74494948 57.29033374 2.44921875 54.53125 C1.87289621 48.65966971 2.1500525 42.94133506 2.5 37.0625 C3.19874428 24.99581372 3.19874428 24.99581372 2 13 C1.67 12.67 1.34 12.34 1 12 C0.76572222 9.98405418 0.58663876 7.961526 0.4375 5.9375 C0.35371094 4.83277344 0.26992188 3.72804687 0.18359375 2.58984375 C0.09271484 1.30787109 0.09271484 1.30787109 0 0 Z " fill="#D87B46" transform="translate(440,148)"/>
<path d="M0 0 C1.91847477 3.83694953 2.247146 5.07650751 2.22705078 9.13574219 C2.22689972 10.15649841 2.22674866 11.17725464 2.22659302 12.22894287 C2.21627045 13.32386047 2.20594788 14.41877808 2.1953125 15.546875 C2.1924826 16.6732135 2.18965271 17.799552 2.18673706 18.96002197 C2.17554374 22.55678946 2.15044037 26.15330779 2.125 29.75 C2.11496912 32.18879849 2.10584346 34.62760088 2.09765625 37.06640625 C2.07560716 43.04435582 2.04213784 49.02216011 2 55 C-2.02929294 56.12155111 -5.8912613 56.1265716 -10.046875 56.09765625 C-10.73088379 56.09664917 -11.41489258 56.09564209 -12.11962891 56.09460449 C-14.66310311 56.0893913 -17.20655332 56.07543006 -19.75 56.0625 C-28.28875 56.0315625 -28.28875 56.0315625 -37 56 C-37 38.84 -37 21.68 -37 4 C-34.93265747 7.1010138 -34.63912906 8.40172577 -34.3125 12 C-34.22613281 12.86625 -34.13976562 13.7325 -34.05078125 14.625 C-34 17 -34 17 -35 20 C-35.09548531 22.24840887 -35.13073536 24.49956547 -35.1328125 26.75 C-35.13376923 27.40452148 -35.13472595 28.05904297 -35.13571167 28.73339844 C-35.13639122 30.11523535 -35.13455261 31.49707549 -35.13037109 32.87890625 C-35.1250196 34.99226054 -35.13032361 37.10540231 -35.13671875 39.21875 C-35.13605793 40.56250047 -35.13477668 41.9062508 -35.1328125 43.25 C-35.13168457 44.47203125 -35.13055664 45.6940625 -35.12939453 46.953125 C-35.13836674 50.04438418 -35.13836674 50.04438418 -34 53 C-22.78 53 -11.56 53 0 53 C0 35.51 0 18.02 0 0 Z " fill="#559545" transform="translate(179,204)"/>
<path d="M0 0 C0.66 0 1.32 0 2 0 C1.525625 1.19625 1.05125 2.3925 0.5625 3.625 C-2.9332879 14.14632636 -2.13915562 25.98425569 -2.0625 36.94921875 C-2.05871338 38.20966507 -2.05492676 39.47011139 -2.05102539 40.76875305 C-2.03893921 44.74170015 -2.02046341 48.71458985 -2 52.6875 C-1.97311794 57.96223418 -1.95347987 63.23693726 -1.9375 68.51171875 C-1.92920166 69.72099533 -1.92090332 70.93027191 -1.91235352 72.17619324 C-1.90739868 73.84987724 -1.90739868 73.84987724 -1.90234375 75.55737305 C-1.89710693 76.53884811 -1.89187012 77.52032318 -1.88647461 78.53153992 C-2 81 -2 81 -3 84 C-14.22 84 -25.44 84 -37 84 C-37 83.67 -37 83.34 -37 83 C-26.44 83 -15.88 83 -5 83 C-5.36710459 75.37147571 -5.36710459 75.37147571 -5.74829102 67.74365234 C-5.79139404 66.78410645 -5.83449707 65.82456055 -5.87890625 64.8359375 C-5.9260376 63.86188965 -5.97316895 62.8878418 -6.02172852 61.88427734 C-6 59 -6 59 -5.51367188 56.28710938 C-4.79762626 51.70496196 -4.87727654 47.20053237 -4.90234375 42.5703125 C-4.9037587 41.57998016 -4.90517365 40.58964783 -4.90663147 39.56930542 C-4.91220748 36.42117227 -4.92475558 33.27311148 -4.9375 30.125 C-4.9425181 27.98437603 -4.94708046 25.84375094 -4.95117188 23.703125 C-4.96216906 18.46872551 -4.97888325 13.23436793 -5 8 C-4.01 8 -3.02 8 -2 8 C-2 6.35 -2 4.7 -2 3 C-1.34 3 -0.68 3 0 3 C0 2.01 0 1.02 0 0 Z " fill="#B56E4C" transform="translate(285,176)"/>
<path d="M0 0 C1.60372657 4.00931642 0.38691773 7.05823382 -1 11 C-1.66 11.66 -2.32 12.32 -3 13 C-3.64767793 15.57061311 -3.64767793 15.57061311 -4 18 C-4.66 18 -5.32 18 -6 18 C-7.74783072 40.891359 -7.74783072 40.891359 -2 62 C-1.8125 64.8125 -1.8125 64.8125 -2 67 C-1.34 67 -0.68 67 0 67 C0.99 70.96 1.98 74.92 3 79 C-0.82551742 75.17448258 -1.66269427 73.93480439 -3.125 69.0625 C-4.42436702 64.77088792 -4.42436702 64.77088792 -6.046875 60.59765625 C-7.27641393 57.24665876 -7.71821688 53.89961671 -8.125 50.375 C-8.2502002 49.30886475 -8.2502002 49.30886475 -8.37792969 48.22119141 C-10.24191584 31.40347144 -7.67520993 16.47169649 -1 1 C-0.67 0.67 -0.34 0.34 0 0 Z " fill="#D4855C" transform="translate(473,157)"/>
<path d="M0 0 C0 0.99 0 1.98 0 3 C-1.65 3 -3.3 3 -5 3 C-5 4.32 -5 5.64 -5 7 C-5.55945313 6.855625 -6.11890625 6.71125 -6.6953125 6.5625 C-14.31088806 4.79940855 -23.28355108 3.5196447 -30.9609375 5.5078125 C-34.05668766 6.25506254 -37.07434056 6.09190425 -40.25 6.0625 C-41.51328125 6.05347656 -42.7765625 6.04445312 -44.078125 6.03515625 C-45.04234375 6.02355469 -46.0065625 6.01195312 -47 6 C-44.18617936 4.12411957 -43.11198024 3.67006412 -39.9375 3.18359375 C-39.14625732 3.05960205 -38.35501465 2.93561035 -37.53979492 2.80786133 C-36.7016626 2.68564209 -35.86353027 2.56342285 -35 2.4375 C-33.70896362 2.24353638 -33.70896362 2.24353638 -32.3918457 2.0456543 C-21.52057145 0.44461768 -10.99844144 -0.14450507 0 0 Z " fill="#E3864A" transform="translate(408,177)"/>
<path d="M0 0 C5.25105442 -0.02464928 10.50207545 -0.04283568 15.75317383 -0.05493164 C17.54094021 -0.05997218 19.32870245 -0.06680454 21.11645508 -0.07543945 C23.68051168 -0.0875173 26.24451397 -0.09323094 28.80859375 -0.09765625 C29.6127623 -0.10281754 30.41693085 -0.10797882 31.24546814 -0.11329651 C33.16401715 -0.11349215 35.08245368 -0.06201983 37 0 C38.99616554 1.99616554 38.40983427 5.81701963 38.5625 8.5625 C38.60568359 9.27341797 38.64886719 9.98433594 38.69335938 10.71679688 C38.79971777 12.47761912 38.90038846 14.2387832 39 16 C39.763125 15.21625 40.52625 14.4325 41.3125 13.625 C44 11 44 11 47 9 C46.690625 9.5775 46.38125 10.155 46.0625 10.75 C44.92922397 12.9207821 44.92922397 12.9207821 44.5625 15.125 C44 17 44 17 41 19 C39.80767387 21.05003955 39.80767387 21.05003955 39 23 C38.01 22.67 37.02 22.34 36 22 C34.8517315 19.703463 34.88438825 18.41686833 34.90234375 15.8671875 C34.90484131 15.14128418 34.90733887 14.41538086 34.90991211 13.66748047 C34.91901611 12.74596191 34.92812012 11.82444336 34.9375 10.875 C34.9684375 6.481875 34.9684375 6.481875 35 2 C23.45 1.67 11.9 1.34 0 1 C0 0.67 0 0.34 0 0 Z " fill="#EBA17C" transform="translate(244,129)"/>
<path d="M0 0 C-0.66 0.33 -1.32 0.66 -2 1 C-3.11375 0.401875 -4.2275 -0.19625 -5.375 -0.8125 C-10.63716263 -3.61833949 -16.1447008 -4.25832877 -22 -5 C-22 -5.66 -22 -6.32 -22 -7 C-33.9370126 -6.71841532 -45.50823734 -6.39434231 -57.13671875 -3.5234375 C-59.9033341 -3.01767153 -61.39321697 -3.04861933 -64 -4 C-62.29422658 -4.65256456 -60.58523911 -5.29673041 -58.875 -5.9375 C-57.92367188 -6.29714844 -56.97234375 -6.65679687 -55.9921875 -7.02734375 C-37.86324984 -12.92043184 -15.94587517 -9.87429945 0 0 Z " fill="#E6A87F" transform="translate(566,136)"/>
<path d="M0 0 C0.66 0 1.32 0 2 0 C3.25806452 9.96774194 3.25806452 9.96774194 2 15 C2.33 15.66 2.66 16.32 3 17 C3 20 3 20 2.4375 23.9375 C2.0460957 26.8893408 1.93315552 29.15508138 3 32 C4.010625 31.979375 5.02125 31.95875 6.0625 31.9375 C10 32 10 32 13.1875 32.5 C17.47965723 33.06290587 21.61745102 33.11062394 25.9375 33.0625 C26.71673828 33.05798828 27.49597656 33.05347656 28.29882812 33.04882812 C30.19925268 33.03716908 32.09963706 33.01923877 34 33 C34.495 32.01 34.495 32.01 35 31 C35 32.32 35 33.64 35 35 C23.45 35 11.9 35 0 35 C0 23.45 0 11.9 0 0 Z " fill="#A64C1D" transform="translate(245,224)"/>
<path d="M0 0 C0.75 1.6875 0.75 1.6875 1 4 C-0.75 6.75 -0.75 6.75 -3 9 C-3.99 9 -4.98 9 -6 9 C-6 9.66 -6 10.32 -6 11 C-9.69405432 13.46270288 -11.63277072 13.22985417 -16 13 C-16.70125 12.814375 -17.4025 12.62875 -18.125 12.4375 C-20.05137643 11.84351614 -20.05137643 11.84351614 -22.1875 12.5 C-25.61350364 13.10906731 -28.49457983 12.66975593 -31.9140625 12.15625 C-34.19483418 11.85038461 -34.19483418 11.85038461 -37 13 C-36.79375 12.443125 -36.5875 11.88625 -36.375 11.3125 C-35.89304789 8.340462 -36.73434972 6.68020059 -38 4 C-37.319375 4.45375 -36.63875 4.9075 -35.9375 5.375 C-28.03468777 9.74676847 -18.19874386 10.7615478 -9.45703125 8.27734375 C-5.25406837 6.32962925 -2.59953489 3.89930233 0 0 Z " fill="#CB6C37" transform="translate(549,220)"/>
<path d="M0 0 C2.29633824 3.44450737 2.54016485 5.93812283 3 10 C-2.44961846 12.1479352 -7.79255123 13.82548981 -13.5 15.125 C-14.56154297 15.37830078 -14.56154297 15.37830078 -15.64453125 15.63671875 C-20.4141562 16.74410882 -25.13306778 17.46288361 -30 18 C-30.83848804 16.54462432 -31.67063934 15.08559627 -32.5 13.625 C-32.9640625 12.81289062 -33.428125 12.00078125 -33.90625 11.1640625 C-35 9 -35 9 -35 7 C-36.32 6.34 -37.64 5.68 -39 5 C-37.3125 4.1875 -37.3125 4.1875 -35 4 C-32.25 6.1875 -32.25 6.1875 -30 9 C-30 10.32 -30 11.64 -30 13 C-28.52168779 13.19412181 -27.04230684 13.38012131 -25.5625 13.5625 C-24.73878906 13.66691406 -23.91507813 13.77132812 -23.06640625 13.87890625 C-22.04353516 13.93884766 -22.04353516 13.93884766 -21 14 C-20.67 13.67 -20.34 13.34 -20 13 C-18.02769832 12.62819644 -16.04669048 12.30199332 -14.0625 12 C-9.89319459 11.43741399 -9.89319459 11.43741399 -6 10 C-3.6670134 9.95977609 -1.33293334 9.95679753 1 10 C0.67 6.7 0.34 3.4 0 0 Z " fill="#CE743B" transform="translate(584,158)"/>
<path d="M0 0 C2.4375 0.75 2.4375 0.75 5 2 C5.625 4 5.625 4 6 6 C6.99 6.66 7.98 7.32 9 8 C10.32 7.34 11.64 6.68 13 6 C13.37125 7.11375 13.7425 8.2275 14.125 9.375 C15.38227414 12.25043253 15.78357078 12.87632616 18.625 14.5 C22.21386955 15.03168438 25.05316444 14.74209964 28.61328125 14.234375 C32.41470233 13.86107669 36.29060016 14.04781031 40 15 C40.495 15.99 40.495 15.99 41 17 C37.52112528 17.11766716 34.0427723 17.18773315 30.5625 17.25 C29.10166992 17.30027344 29.10166992 17.30027344 27.61132812 17.3515625 C18.10114472 17.47878903 11.06520059 14.46494718 3.59765625 8.66015625 C1.03634314 5.99864507 0.5760966 3.60060375 0 0 Z " fill="#B35420" transform="translate(337,243)"/>
<path d="M0 0 C1.14037113 3.41313877 0.82461648 5.76319258 0.0625 9.25 C-1.45244034 17.0841093 -1.27369634 23.05854444 1.24609375 30.703125 C2 33 2 33 2.49609375 35.1015625 C2.99957502 37.27695268 2.99957502 37.27695268 4.625 40.125 C5.07875 41.07375 5.5325 42.0225 6 43 C5.67 43.66 5.34 44.32 5 45 C-2.18257731 35.79514365 -5.09457424 25.65072241 -4 14 C-3.28127293 8.9761704 -2.4383435 4.48737165 0 0 Z " fill="#BE6D3F" transform="translate(333,204)"/>
<path d="M0 0 C0 0.33 0 0.66 0 1 C-0.804375 1.02578125 -1.60875 1.0515625 -2.4375 1.078125 C-12.06035912 1.54238575 -21.38902321 2.94453002 -30.87304688 4.62792969 C-31.86755859 4.80356445 -32.86207031 4.97919922 -33.88671875 5.16015625 C-34.77576904 5.32136963 -35.66481934 5.48258301 -36.58081055 5.64868164 C-39 6 -39 6 -43 6 C-43 6.66 -43 7.32 -43 8 C-46.3 8.33 -49.6 8.66 -53 9 C-41.34174855 -2.65825145 -14.97434845 -0.27865235 0 0 Z " fill="#E9AF88" transform="translate(403,127)"/>
<path d="M0 0 C0.33 0 0.66 0 1 0 C1.33 9.9 1.66 19.8 2 30 C2.66 30 3.32 30 4 30 C4.5339744 33.08120684 5.04985551 36.16517859 5.5625 39.25 C5.71396484 40.12269531 5.86542969 40.99539062 6.02148438 41.89453125 C6.2293457 43.16103516 6.2293457 43.16103516 6.44140625 44.453125 C6.63778687 45.61569824 6.63778687 45.61569824 6.83813477 46.80175781 C7.00822774 49.11173847 6.68559092 50.80085213 6 53 C5.34 52.67 4.68 52.34 4 52 C-1.38866861 35.14566059 -0.42285792 17.45427386 0 0 Z " fill="#C7672E" transform="translate(444,200)"/>
<path d="M0 0 C0.99 0 1.98 0 3 0 C4 3 4 3 4 4 C6.16874252 3.49396008 7.99967627 3.00016187 10 2 C9.67 3.32 9.34 4.64 9 6 C-6.51 6 -22.02 6 -38 6 C-33.82252502 3.91126251 -32.03669747 3.76330275 -27.484375 3.8046875 C-25.60878906 3.81435547 -25.60878906 3.81435547 -23.6953125 3.82421875 C-22.39335938 3.84097656 -21.09140625 3.85773438 -19.75 3.875 C-18.43257812 3.88402344 -17.11515625 3.89304687 -15.7578125 3.90234375 C-12.50502538 3.92591467 -9.25260411 3.95881978 -6 4 C-6 3.34 -6 2.68 -6 2 C-4.02 2 -2.04 2 0 2 C0 1.34 0 0.68 0 0 Z " fill="#86E650" transform="translate(134,120)"/>
<path d="M0 0 C-0.39832031 0.47308594 -0.79664063 0.94617188 -1.20703125 1.43359375 C-11.68594017 14.5131078 -10.6886623 30.13863621 -9 46 C-14.88476542 37.17285187 -12.65598651 20.71496538 -10.6953125 10.56640625 C-9.46206834 6.01448819 -7.84166305 2.29999745 -3.875 -0.5 C-2 -1 -2 -1 0 0 Z " fill="#C97544" transform="translate(514,165)"/>
<path d="M0 0 C2.47336665 4.94673331 3.12306755 7.67841213 3.02172852 13.11181641 C3.01212097 13.84362625 3.00251343 14.5754361 2.99261475 15.329422 C2.95957634 17.75356523 2.91926258 20.17753095 2.87890625 22.6015625 C2.85460986 24.28021617 2.83076606 25.95887644 2.80735779 27.63754272 C2.74446899 32.05993159 2.67541596 36.48220376 2.60510254 40.90447998 C2.53446236 45.41543251 2.46961958 49.92646789 2.40429688 54.4375 C2.27522275 63.29175773 2.13963994 72.14590305 2 81 C1.67 81 1.34 81 1 81 C0.67 54.27 0.34 27.54 0 0 Z " fill="#91D166" transform="translate(141,127)"/>
<path d="M0 0 C0 0.33 0 0.66 0 1 C-0.71019287 1.07516846 -1.42038574 1.15033691 -2.15209961 1.2277832 C-5.41510046 1.57906892 -8.67621116 1.94567344 -11.9375 2.3125 C-13.05447266 2.43044922 -14.17144531 2.54839844 -15.32226562 2.66992188 C-21.93603378 3.42633524 -27.77046154 4.64162754 -34 7 C-32.60136141 3.69102577 -32.17202911 3.09107423 -28.8125 1.3125 C-19.76097902 -2.10737651 -9.40990125 -1.67287133 0 0 Z " fill="#D26B33" transform="translate(408,203)"/>
<path d="M0 0 C6.95023264 0.64653327 13.38177303 2.86027248 20 5 C19.02541328 10.80165739 17.98746845 15.83982722 15 21 C13.80873219 17.42619658 14.2650555 15.49116698 14.9375 11.8125 C15.13214844 10.72582031 15.32679688 9.63914063 15.52734375 8.51953125 C15.68332031 7.68808594 15.83929687 6.85664063 16 6 C14.77023437 5.81824219 14.77023437 5.81824219 13.515625 5.6328125 C11.89914062 5.38144531 11.89914062 5.38144531 10.25 5.125 C9.18265625 4.96257812 8.1153125 4.80015625 7.015625 4.6328125 C4.32291129 4.06776118 2.36427561 3.36577086 0 2 C0 1.34 0 0.68 0 0 Z " fill="#CE794B" transform="translate(568,214)"/>
<path d="M0 0 C10.89 0 21.78 0 33 0 C33 5.28 33 10.56 33 16 C32.67 16 32.34 16 32 16 C30.66742597 5.44191344 30.66742597 5.44191344 32 1 C31.01 1 30.02 1 29 1 C28.67 2.32 28.34 3.64 28 5 C27.34 5 26.68 5 26 5 C26 3.68 26 2.36 26 1 C17.75 1 9.5 1 1 1 C1.33 3.97 1.66 6.94 2 10 C1.67 10.66 1.34 11.32 1 12 C-1.44576827 8.33134759 -1.23607254 6.32799657 -1 2 C-0.67 1.34 -0.34 0.68 0 0 Z " fill="#E97029" transform="translate(246,131)"/>
<path d="M0 0 C0 0.66 0 1.32 0 2 C-2.65228812 3.07525194 -5.28368454 4.09456151 -8 5 C-6.97325254 9.02142757 -5.75215845 12.67166692 -4 16.4375 C-2.09715979 20.56978733 -0.9687764 24.55977484 0 29 C1.32 29.33 2.64 29.66 4 30 C2.68 30.33 1.36 30.66 0 31 C-2.84994062 25.41361196 -5.61846903 19.78822424 -8.3125 14.125 C-8.82425781 13.05507812 -9.33601563 11.98515625 -9.86328125 10.8828125 C-11 8 -11 8 -11 4 C-9.73308493 3.32591692 -8.46129251 2.66099503 -7.1875 2 C-6.47980469 1.62875 -5.77210938 1.2575 -5.04296875 0.875 C-3 0 -3 0 0 0 Z " fill="#D67F4D" transform="translate(350,136)"/>
<path d="M0 0 C0.97066406 0.64453125 1.94132812 1.2890625 2.94140625 1.953125 C7.23462372 4.40639213 11.07119541 4.65826161 15.9375 4.75 C17.10635742 4.79447266 17.10635742 4.79447266 18.29882812 4.83984375 C20.19868177 4.90977701 22.0993406 4.95724051 24 5 C23.01 5.495 23.01 5.495 22 6 C22 7.65 22 9.3 22 11 C21.34 10.67 20.68 10.34 20 10 C20 9.34 20 8.68 20 8 C19.13117188 8.03480469 18.26234375 8.06960937 17.3671875 8.10546875 C5.20957949 8.39105015 5.20957949 8.39105015 1 5 C0.125 2.3125 0.125 2.3125 0 0 Z " fill="#C26B37" transform="translate(370,228)"/>
<path d="M0 0 C8.89543642 -0.19865739 17.32910197 -0.33447255 26 2 C26 2.66 26 3.32 26 4 C26.99 4.33 27.98 4.66 29 5 C30.35439668 7.70879335 30.06501451 10.00933268 30 13 C29.34 12.01 28.68 11.02 28 10 C23.55282987 5.07205472 20.16986891 3.05119655 13.57421875 2.5859375 C11.94571642 2.50681998 10.3167543 2.43672392 8.6875 2.375 C7.85154297 2.33632812 7.01558594 2.29765625 6.15429688 2.2578125 C4.10320741 2.16404841 2.05163485 2.08095755 0 2 C0 1.34 0 0.68 0 0 Z " fill="#C9713F" transform="translate(378,155)"/>
<path d="M0 0 C0.99 0 1.98 0 3 0 C1.26530869 6.16779132 -3.19066461 11.14494679 -8.4609375 14.625 C-10.61418635 15.82049463 -12.77284515 16.94955055 -15 18 C-15 17.01 -15 16.02 -15 15 C-13.53311963 13.72445185 -12.06023134 12.45118883 -10.5078125 11.28125 C-8.72500021 9.88527155 -8.72500021 9.88527155 -7 7 C-6.01 6.67 -5.02 6.34 -4 6 C-3.01 4.4840625 -3.01 4.4840625 -2 2.9375 C-1.34 1.968125 -0.68 0.99875 0 0 Z " fill="#A76141" transform="translate(578,236)"/>
<path d="M0 0 C7.66142233 -0.49965798 14.97809967 1.05788869 21 6 C20.22914063 5.97679687 19.45828125 5.95359375 18.6640625 5.9296875 C17.15972656 5.90261719 17.15972656 5.90261719 15.625 5.875 C14.62726563 5.85179687 13.62953125 5.82859375 12.6015625 5.8046875 C9.83737827 5.72783152 9.83737827 5.72783152 8 8 C8 7.34 8 6.68 8 6 C6.68 5.67 5.36 5.34 4 5 C4.33 4.67 4.66 4.34 5 4 C3.02 3.34 1.04 2.68 -1 2 C-0.67 1.34 -0.34 0.68 0 0 Z " fill="#E88A54" transform="translate(403,128)"/>
<path d="M0 0 C1.23105469 -0.00257812 2.46210938 -0.00515625 3.73046875 -0.0078125 C6.8125 0.125 6.8125 0.125 8.8125 1.125 C8.8125 7.065 8.8125 13.005 8.8125 19.125 C8.4825 19.125 8.1525 19.125 7.8125 19.125 C7.8125 13.515 7.8125 7.905 7.8125 2.125 C-2.13122496 2.4635765 -2.13122496 2.4635765 -11.875 4.25 C-15.14004525 5.11246478 -16.12340991 5.07293201 -19.1875 4.125 C-12.56754848 1.13953167 -7.3521096 -0.01549444 0 0 Z " fill="#EBB48F" transform="translate(319.1875,126.875)"/>
<path d="M0 0 C0.33 0 0.66 0 1 0 C1 11.55 1 23.1 1 35 C-5.27 35 -11.54 35 -18 35 C-17.67 34.34 -17.34 33.68 -17 33 C-8.585 32.505 -8.585 32.505 0 32 C0 21.44 0 10.88 0 0 Z " fill="#C57B53" transform="translate(326,129)"/>
<path d="M0 0 C-2.52951096 2.90893761 -2.52951096 2.90893761 -4.9375 3.375 C-8.02086495 4.30935302 -9.1708587 6.45226747 -11 9 C-12.32 8.67 -13.64 8.34 -15 8 C-15.33 9.65 -15.66 11.3 -16 13 C-18.35953094 10.64046906 -18.49141413 9.22104383 -19 6 C-16.03 5.01 -13.06 4.02 -10 3 C-10 2.34 -10 1.68 -10 1 C-6.52674819 -0.1577506 -3.63932552 -0.06866652 0 0 Z " fill="#E96F21" transform="translate(360,135)"/>
<path d="M0 0 C6.95279171 -0.15114765 10.17991482 3.40585007 15.05859375 8.06640625 C15.69925781 8.70449219 16.33992187 9.34257812 17 10 C16.67 10.66 16.34 11.32 16 12 C15.566875 11.505 15.13375 11.01 14.6875 10.5 C13.00259517 8.66781808 13.00259517 8.66781808 10 9 C10 7.68 10 6.36 10 5 C8.02 5.66 6.04 6.32 4 7 C4 6.34 4 5.68 4 5 C2.02 5.33 0.04 5.66 -2 6 C-1.49396008 3.83125748 -1.00016187 2.00032373 0 0 Z " fill="#E77127" transform="translate(562,137)"/>
<path d="M0 0 C1.04285156 -0.00257813 2.08570313 -0.00515625 3.16015625 -0.0078125 C5.9375 0.125 5.9375 0.125 8.9375 1.125 C8.9375 1.785 8.9375 2.445 8.9375 3.125 C7.8753125 3.15078125 6.813125 3.1765625 5.71875 3.203125 C-2.11894405 3.48555608 -8.2960617 3.7550086 -15.0625 8.125 C-13.68772063 5.27556412 -12.55248119 3.13613865 -10.0625 1.125 C-6.70580583 0.00610194 -3.51902073 -0.00872124 0 0 Z " fill="#CA723C" transform="translate(529.0625,155.875)"/>
<path d="M0 0 C-2.36210866 1.44351085 -4.667828 2.84814994 -7.1875 4 C-9.33477942 5.00322742 -9.33477942 5.00322742 -11 8 C-11.78375 8.144375 -12.5675 8.28875 -13.375 8.4375 C-16.65132639 9.13956994 -17.75393676 10.59903585 -20 13 C-20.66 13 -21.32 13 -22 13 C-22.33 13.99 -22.66 14.98 -23 16 C-23.66 15.67 -24.32 15.34 -25 15 C-19.95819643 8.42228275 -9.12684182 -3.04228061 0 0 Z " fill="#E3966A" transform="translate(361,184)"/>
<path d="M0 0 C0.66 0 1.32 0 2 0 C3.25806452 9.96774194 3.25806452 9.96774194 2 15 C2.33 15.66 2.66 16.32 3 17 C3 19.4717493 2.79628191 21.63277439 2.4375 24.0625 C1.66355461 27.77981861 1.66355461 27.77981861 3 30 C2.0625 32.125 2.0625 32.125 1 34 C0 33 0 33 -0.11352539 29.85717773 C-0.11336633 28.46597303 -0.10767506 27.07476239 -0.09765625 25.68359375 C-0.0962413 24.95253922 -0.09482635 24.22148468 -0.09336853 23.46827698 C-0.08775408 21.12464368 -0.07519922 18.78110461 -0.0625 16.4375 C-0.05748686 14.85221492 -0.05292363 13.26692834 -0.04882812 11.68164062 C-0.03777997 7.7877239 -0.02050572 3.89387795 0 0 Z " fill="#B6571E" transform="translate(245,224)"/>
<path d="M0 0 C2.06734253 3.1010138 2.36087094 4.40172577 2.6875 8 C2.77386719 8.86625 2.86023438 9.7325 2.94921875 10.625 C3 13 3 13 2 16 C1.91821886 17.70016844 1.89250499 19.40336297 1.90234375 21.10546875 C1.90556641 22.08837891 1.90878906 23.07128906 1.91210938 24.08398438 C1.92048828 25.10814453 1.92886719 26.13230469 1.9375 27.1875 C1.94201172 28.22326172 1.94652344 29.25902344 1.95117188 30.32617188 C1.9629599 32.88417266 1.97941485 35.44205733 2 38 C1.34 37.67 0.68 37.34 0 37 C0 24.79 0 12.58 0 0 Z " fill="#5FA044" transform="translate(142,208)"/>
<path d="M0 0 C-10.18754809 4.11420211 -21.30165104 4.05993055 -32 2 C-32 1.67 -32 1.34 -32 1 C-31.16190796 0.96241577 -31.16190796 0.96241577 -30.30688477 0.92407227 C-27.72527572 0.80656895 -25.14389764 0.6845562 -22.5625 0.5625 C-21.68400391 0.52318359 -20.80550781 0.48386719 -19.90039062 0.44335938 C-14.85579219 0.20136757 -9.89281948 -0.19400818 -4.89038086 -0.89868164 C-3 -1 -3 -1 0 0 Z " fill="#A0593A" transform="translate(390,259)"/>
<path d="M0 0 C0.66 0.33 1.32 0.66 2 1 C1.401875 1.5775 0.80375 2.155 0.1875 2.75 C-2.00832043 4.89564497 -2.00832043 4.89564497 -3.5625 7.1875 C-5 9 -5 9 -8 10 C-9.6974035 13.00770784 -9.6974035 13.00770784 -11.1875 16.5625 C-11.71730469 17.76003906 -12.24710937 18.95757812 -12.79296875 20.19140625 C-13.19128906 21.11824219 -13.58960938 22.04507813 -14 23 C-15.56339429 18.30981712 -13.96083541 14.42608862 -12 10 C-9.1875 7.1875 -9.1875 7.1875 -6 5 C-4.86556924 4.07393407 -3.74021489 3.13661906 -2.625 2.1875 C-1.325625 1.1046875 -1.325625 1.1046875 0 0 Z " fill="#DD712E" transform="translate(347,191)"/>
<path d="M0 0 C1.29904812 4.1827507 0.45033124 6.87800595 -1 11 C-1.66 11.66 -2.32 12.32 -3 13 C-3.64767793 15.57061311 -3.64767793 15.57061311 -4 18 C-4.66 18 -5.32 18 -6 18 C-6.33 22.29 -6.66 26.58 -7 31 C-7.33 31 -7.66 31 -8 31 C-8.75389259 19.88008423 -4.80312314 9.88728007 0 0 Z " fill="#DE9569" transform="translate(473,157)"/>
<path d="M0 0 C-0.66 0 -1.32 0 -2 0 C-2 0.99 -2 1.98 -2 3 C-5.82989106 4.80230168 -8.78121808 5.19622241 -13 5 C-13.33 4.34 -13.66 3.68 -14 3 C-14.66 3 -15.32 3 -16 3 C-16.33 3.66 -16.66 4.32 -17 5 C-17 4.01 -17 3.02 -17 2 C-11.52376103 -0.00350206 -5.72409541 -2.06067435 0 0 Z " fill="#EA6F25" transform="translate(521,131)"/>
<path d="M0 0 C6.33169265 1.29880875 10.68015353 5.40732112 15 10 C15.33 10.99 15.66 11.98 16 13 C15.01 13.33 14.02 13.66 13 14 C11.5 12.6875 11.5 12.6875 10 11 C10 10.01 10 9.02 10 8 C9.21625 7.9175 8.4325 7.835 7.625 7.75 C5 7 5 7 3.875 5 C3.58625 4.34 3.2975 3.68 3 3 C2.01 2.67 1.02 2.34 0 2 C0 1.34 0 0.68 0 0 Z " fill="#DF935D" transform="translate(424,134)"/>
<path d="M0 0 C-2.38075393 3.96792321 -4.67254018 4.68294701 -9 6 C-9.33 6.66 -9.66 7.32 -10 8 C-12.64860427 8.59355614 -15.29197322 8.74209269 -18 9 C-13.42443091 3.62867977 -7.16903103 -0.45517657 0 0 Z " fill="#E28851" transform="translate(504,133)"/>
<path d="M0 0 C0.66 0 1.32 0 2 0 C1.525625 1.19625 1.05125 2.3925 0.5625 3.625 C-1.57734901 9.93351712 -1.7273652 16.39095639 -2 23 C-2.66 22.67 -3.32 22.34 -4 22 C-5.14242743 17.31604754 -5.08252495 12.78644729 -5 8 C-4.01 8 -3.02 8 -2 8 C-2 6.35 -2 4.7 -2 3 C-1.34 3 -0.68 3 0 3 C0 2.01 0 1.02 0 0 Z " fill="#D58154" transform="translate(285,176)"/>
<path d="M0 0 C0.33 0 0.66 0 1 0 C1.66 3.96 2.32 7.92 3 12 C15.87 12.495 15.87 12.495 29 13 C29 13.33 29 13.66 29 14 C19.43 14 9.86 14 0 14 C0 9.38 0 4.76 0 0 Z " fill="#3B7A36" transform="translate(142,245)"/>
<path d="M0 0 C1.65 0 3.3 0 5 0 C5 0.66 5 1.32 5 2 C6.155 1.938125 7.31 1.87625 8.5 1.8125 C13.21213121 1.78725644 16.69559472 3.15525488 21 5 C17.54226999 7.1825388 15.40174889 7.07298856 11.4375 6.3125 C10.48746094 6.14363281 9.53742187 5.97476563 8.55859375 5.80078125 C5.81039038 4.94065653 4.85760622 4.12682451 3 2 C2.01 1.34 1.02 0.68 0 0 Z " fill="#E37127" transform="translate(539,129)"/>
<path d="M0 0 C0.33 0 0.66 0 1 0 C1.5339744 3.08120684 2.04985551 6.16517859 2.5625 9.25 C2.71396484 10.12269531 2.86542969 10.99539062 3.02148438 11.89453125 C3.16005859 12.73886719 3.29863281 13.58320313 3.44140625 14.453125 C3.57232666 15.22817383 3.70324707 16.00322266 3.83813477 16.80175781 C4.00822774 19.11173847 3.68559092 20.80085213 3 23 C1 22 1 22 0.38110352 20.20800781 C-0.00392085 17.97728368 -0.11381451 15.93403161 -0.09765625 13.671875 C-0.09282227 12.47304687 -0.09282227 12.47304687 -0.08789062 11.25 C-0.07951172 10.425 -0.07113281 9.6 -0.0625 8.75 C-0.05798828 7.90953125 -0.05347656 7.0690625 -0.04882812 6.203125 C-0.03707961 4.13538599 -0.01914522 2.06768376 0 0 Z " fill="#C17A54" transform="translate(447,230)"/>
<path d="M0 0 C0.33 0.66 0.66 1.32 1 2 C-6.73865554 4.13480153 -14.00023956 4.20483028 -22 4 C-15.68598198 -0.20934535 -7.41145544 -0.27967756 0 0 Z " fill="#E29566" transform="translate(383,179)"/>
<path d="M0 0 C1.24546405 2.49092811 0.7767578 3.41080733 0 6 C-0.99 6 -1.98 6 -3 6 C-3.2475 6.556875 -3.495 7.11375 -3.75 7.6875 C-5.22924818 10.42410913 -6.93467439 12.67650869 -9 15 C-9.66 15 -10.32 15 -11 15 C-9.2645544 8.82952674 -4.42122925 4.42122925 0 0 Z " fill="#E59B6C" transform="translate(485,142)"/>
<path d="M0 0 C1.98 0 3.96 0 6 0 C6 10.56 6 21.12 6 32 C5.67 32 5.34 32 5 32 C4.98598145 30.75911621 4.98598145 30.75911621 4.97167969 29.49316406 C4.91799681 25.74483585 4.8343429 21.99775838 4.75 18.25 C4.73582031 16.94804687 4.72164063 15.64609375 4.70703125 14.3046875 C4.67480469 13.05429688 4.64257812 11.80390625 4.609375 10.515625 C4.58842773 9.36352539 4.56748047 8.21142578 4.54589844 7.02441406 C3.90026911 3.44746591 2.77802951 2.25533407 0 0 Z " fill="#DE7535" transform="translate(320,129)"/>
<path d="M0 0 C2.29633824 3.44450737 2.54016485 5.93812283 3 10 C-2.45126259 12.23891142 -7.13190493 13.47606294 -13 14 C-12 12 -12 12 -9.375 10.875 C-5.78189212 9.94345351 -2.69584376 9.85216625 1 10 C0.67 6.7 0.34 3.4 0 0 Z " fill="#C8875F" transform="translate(584,158)"/>
<path d="M0 0 C1.485 0.99 1.485 0.99 3 2 C3.1875 4.625 3.1875 4.625 3 7 C3.66 7 4.32 7 5 7 C5.99 10.96 6.98 14.92 8 19 C4.18433055 15.18433055 3.27144801 13.80975613 1.75 8.9375 C1.41484375 7.89464844 1.0796875 6.85179687 0.734375 5.77734375 C0 3 0 3 0 0 Z " fill="#C47E57" transform="translate(468,217)"/>
<path d="M0 0 C0.66 0 1.32 0 2 0 C3.68732277 1.98260426 5.35366057 3.9832342 7 6 C7.66 6.33 8.32 6.66 9 7 C9.625 10.0625 9.625 10.0625 10 13 C8.87411986 12.04270084 7.7493285 11.08412105 6.625 10.125 C5.99851562 9.59132812 5.37203125 9.05765625 4.7265625 8.5078125 C1.52551996 5.71233191 0.66249415 4.19579627 0 0 Z " fill="#B96634" transform="translate(475,233)"/>
<path d="M0 0 C1.18056334 3.5001209 0.82576105 6.09249981 0.125 9.6875 C-0.05804688 10.66074219 -0.24109375 11.63398438 -0.4296875 12.63671875 C-1 15 -1 15 -2 16 C-2.23075082 17.34747084 -2.41153063 18.70377565 -2.5625 20.0625 C-2.706875 21.361875 -2.85125 22.66125 -3 24 C-3.33 24 -3.66 24 -4 24 C-4.3180382 15.69566932 -4.04525307 7.4446254 0 0 Z " fill="#DFB295" transform="translate(333,204)"/>
<path d="M0 0 C1.98 0 3.96 0 6 0 C6.33 0.66 6.66 1.32 7 2 C4.03 2.66 1.06 3.32 -2 4 C-2 4.66 -2 5.32 -2 6 C-3.65 6.66 -5.3 7.32 -7 8 C-7 6.68 -7 5.36 -7 4 C-5.68 4 -4.36 4 -3 4 C-3 3.34 -3 2.68 -3 2 C-2.01 2 -1.02 2 0 2 C0 1.34 0 0.68 0 0 Z " fill="#C57641" transform="translate(300,163)"/>
<path d="M0 0 C2.97 0.33 5.94 0.66 9 1 C9 1.33 9 1.66 9 2 C6.69 2.33 4.38 2.66 2 3 C1.67 4.65 1.34 6.3 1 8 C0.34 8 -0.32 8 -1 8 C-1 8.66 -1 9.32 -1 10 C-1.99 9.67 -2.98 9.34 -4 9 C-2.68 6.03 -1.36 3.06 0 0 Z " fill="#DB9B7B" transform="translate(554,210)"/>
<path d="M0 0 C4.42639996 5.56634954 5.28728676 10.96147449 5 18 C2.02257741 13.53386611 0.72138143 11.18141214 0.375 5.8125 C0.30023438 4.72582031 0.22546875 3.63914063 0.1484375 2.51953125 C0.09945313 1.68808594 0.05046875 0.85664063 0 0 Z " fill="#D6864D" transform="translate(440,148)"/>
<path d="M0 0 C-4.01969095 4.01969095 -10.04739956 5.8653379 -15.625 6.25 C-16.40875 6.1675 -17.1925 6.085 -18 6 C-18 5.67 -18 5.34 -18 5 C-17.0925 4.731875 -16.185 4.46375 -15.25 4.1875 C-12.04738584 3.23577274 -12.04738584 3.23577274 -10.125 1.375 C-6.81333871 -0.76783966 -3.8891473 -0.19445737 0 0 Z " fill="#C76B3A" transform="translate(368,159)"/>
<path d="M0 0 C0.60328125 0.08378906 1.2065625 0.16757812 1.828125 0.25390625 C3.02695312 0.40666016 3.02695312 0.40666016 4.25 0.5625 C5.03890625 0.66691406 5.8278125 0.77132813 6.640625 0.87890625 C9.03609044 1.00185232 10.69608781 0.58612247 13 0 C15.32421875 0.05078125 15.32421875 0.05078125 17.6875 0.3125 C18.47511719 0.39113281 19.26273437 0.46976562 20.07421875 0.55078125 C20.70972656 0.69902344 21.34523438 0.84726562 22 1 C22.33 1.66 22.66 2.32 23 3 C19.72933434 3.08706892 16.45896635 3.14041241 13.1875 3.1875 C12.25873047 3.21263672 11.32996094 3.23777344 10.37304688 3.26367188 C9.0340332 3.27817383 9.0340332 3.27817383 7.66796875 3.29296875 C6.84578857 3.3086792 6.0236084 3.32438965 5.17651367 3.34057617 C2.52497566 2.92566921 1.66736408 2.04470249 0 0 Z " fill="#B0501B" transform="translate(355,257)"/>
<path d="M0 0 C-1.61619656 2.6417565 -2.49427342 3.831159 -5.48046875 4.828125 C-6.37378906 4.96734375 -7.26710938 5.1065625 -8.1875 5.25 C-9.08855469 5.39953125 -9.98960937 5.5490625 -10.91796875 5.703125 C-11.94857422 5.85007813 -11.94857422 5.85007813 -13 6 C-8.3374496 1.21475091 -6.68645054 -0.14535762 0 0 Z " fill="#E0864B" transform="translate(304,132)"/>
<path d="M0 0 C-2.71129502 2.71129502 -5.31753779 3.0955356 -9 4 C-12 4 -15 4 -18 4 C-18 3.34 -18 2.68 -18 2 C-16.12612523 1.6603981 -14.25083303 1.32861309 -12.375 1 C-11.33085937 0.814375 -10.28671875 0.62875 -9.2109375 0.4375 C-6.09425135 0.01284203 -3.14069188 -0.07545206 0 0 Z " fill="#E96F27" transform="translate(378,131)"/>
<path d="M0 0 C0.99 0 1.98 0 3 0 C3.33 0.99 3.66 1.98 4 3 C2 5 2 5 0.0546875 5.1953125 C-1.96354167 5.13020833 -3.98177083 5.06510417 -6 5 C-6 4.01 -6 3.02 -6 2 C-4.02 2 -2.04 2 0 2 C0 1.34 0 0.68 0 0 Z " fill="#82EB3E" transform="translate(134,120)"/>
<path d="M0 0 C0.33 0 0.66 0 1 0 C1.91297308 4.97063121 1.91297308 9.02936879 1 14 C2.65 14 4.3 14 6 14 C6 14.99 6 15.98 6 17 C4.33388095 17.042721 2.66617115 17.04063832 1 17 C0 16 0 16 -0.09765625 12.40234375 C-0.0909822 10.91403133 -0.07902183 9.42573568 -0.0625 7.9375 C-0.05798828 7.17888672 -0.05347656 6.42027344 -0.04882812 5.63867188 C-0.0370068 3.75908129 -0.01907078 1.87953101 0 0 Z " fill="#87E841" transform="translate(90,108)"/>
<path d="M0 0 C0.99 0.33 1.98 0.66 3 1 C3.5625 2.75 3.5625 2.75 4 5 C4.6469365 6.6744239 5.30959426 8.34302621 6 10 C7.65 9.67 9.3 9.34 11 9 C10.01 10.485 10.01 10.485 9 12 C6.375 12.1875 6.375 12.1875 4 12 C3.32645501 10.56570999 2.66140299 9.12742943 2 7.6875 C1.62875 6.88699219 1.2575 6.08648437 0.875 5.26171875 C0 3 0 3 0 0 Z " fill="#E26F27" transform="translate(346,152)"/>
<path d="M0 0 C4.99184736 -0.29363808 7.97444744 -0.07836372 12 3 C12.33 3.66 12.66 4.32 13 5 C8.15340923 4.40895235 4.39251833 3.02055843 0 1 C0 0.67 0 0.34 0 0 Z " fill="#A25C36" transform="translate(499,255)"/>
<path d="M0 0 C1.58971965 2.38457948 2.86741593 4.6304124 4.125 7.1875 C4.47820312 7.90292969 4.83140625 8.61835938 5.1953125 9.35546875 C5.46085937 9.89816406 5.72640625 10.44085938 6 11 C4.02 11.99 4.02 11.99 2 13 C0.54815522 8.46298506 -0.23509196 4.81938524 0 0 Z " fill="#CE7640" transform="translate(505,211)"/>
<path d="M0 0 C2.0625 0.4375 2.0625 0.4375 4 1 C3.030625 1.598125 2.06125 2.19625 1.0625 2.8125 C-2.23052042 4.71127509 -2.23052042 4.71127509 -3 8 C-4.98 7.34 -6.96 6.68 -9 6 C-7.38371879 2.76743757 -4.23006285 2.32663296 -1 1 C-0.67 0.67 -0.34 0.34 0 0 Z " fill="#E46F25" transform="translate(361,183)"/>
<path d="M0 0 C0 0.66 0 1.32 0 2 C-2.65228812 3.07525194 -5.28368454 4.09456151 -8 5 C-8.33 6.65 -8.66 8.3 -9 10 C-9.66 9.34 -10.32 8.68 -11 8 C-11 6.68 -11 5.36 -11 4 C-9.73308493 3.32591692 -8.46129251 2.66099503 -7.1875 2 C-6.47980469 1.62875 -5.77210938 1.2575 -5.04296875 0.875 C-3 0 -3 0 0 0 Z " fill="#DA946A" transform="translate(350,136)"/>
<path d="M0 0 C4.29 0 8.58 0 13 0 C13 0.66 13 1.32 13 2 C8.10492798 3.39859201 4.63339845 3.0592882 0 1 C0 0.67 0 0.34 0 0 Z " fill="#CD5A11" transform="translate(377,236)"/>
<path d="M0 0 C2.25 -0.0625 2.25 -0.0625 5 1 C6.8106336 3.82841211 8.12399098 6.75762896 9 10 C8.67 10.99 8.34 11.98 8 13 C7.32845067 11.71086513 6.66291141 10.41859796 6 9.125 C5.62875 8.40570313 5.2575 7.68640625 4.875 6.9453125 C4 5 4 5 4 3 C2.68 2.34 1.36 1.68 0 1 C0 0.67 0 0.34 0 0 Z " fill="#C07C4D" transform="translate(545,162)"/>
<path d="M0 0 C-1.74468372 0.70088156 -3.49601161 1.38524009 -5.25 2.0625 C-6.22453125 2.44535156 -7.1990625 2.82820313 -8.203125 3.22265625 C-11.04007395 4.01113787 -12.29409552 4.02437812 -15 3 C-13.875 1.5 -13.875 1.5 -12 0 C-8.9375 -0.125 -8.9375 -0.125 -6 0 C-3.50907189 -1.24546405 -2.58919267 -0.7767578 0 0 Z " fill="#9E5B3C" transform="translate(558,257)"/>
<path d="M0 0 C1.8125 0.1875 1.8125 0.1875 4 1 C6.98551094 4.75953229 7.53829217 8.29058015 8 13 C5.52140092 10.7991151 4.38789634 8.93627031 3.3125 5.8125 C3.06113281 5.09707031 2.80976563 4.38164062 2.55078125 3.64453125 C2.36902344 3.10183594 2.18726563 2.55914062 2 2 C1.34 2 0.68 2 0 2 C0 1.34 0 0.68 0 0 Z " fill="#A0684A" transform="translate(408,246)"/>
<path d="M0 0 C0.33 0 0.66 0 1 0 C1.05380578 2.79192205 1.09357669 5.5828141 1.125 8.375 C1.15013672 9.56609375 1.15013672 9.56609375 1.17578125 10.78125 C1.19335473 12.85492015 1.10335168 14.92883241 1 17 C0.34 17.66 -0.32 18.32 -1 19 C-1.99 18.67 -2.98 18.34 -4 18 C-3.51917969 17.66355469 -3.03835938 17.32710937 -2.54296875 16.98046875 C-0.24390033 14.02951258 -0.43016048 10.91291058 -0.3125 7.3125 C-0.27833984 6.61060547 -0.24417969 5.90871094 -0.20898438 5.18554688 C-0.12670053 3.45758613 -0.0616676 1.72881928 0 0 Z " fill="#C4774B" transform="translate(408,204)"/>
<path d="M0 0 C0.66 0 1.32 0 2 0 C2.33 0.99 2.66 1.98 3 3 C2.34 3 1.68 3 1 3 C1.33 4.32 1.66 5.64 2 7 C-0.16874252 6.49396008 -1.99967627 6.00016187 -4 5 C-4 4.01 -4 3.02 -4 2 C-3.01 2 -2.02 2 -1 2 C-0.67 1.34 -0.34 0.68 0 0 Z " fill="#EA6E20" transform="translate(558,166)"/>
<path d="M0 0 C0 0.66 0 1.32 0 2 C-1.32 2 -2.64 2 -4 2 C-4 2.66 -4 3.32 -4 4 C-7.3 4.33 -10.6 4.66 -14 5 C-11.81385576 2.81385576 -10.46120051 2.31743465 -7.5625 1.375 C-6.38880859 0.98441406 -6.38880859 0.98441406 -5.19140625 0.5859375 C-3 0 -3 0 0 0 Z " fill="#E6A16C" transform="translate(364,131)"/>
<path d="M0 0 C1.65 0 3.3 0 5 0 C5 0.99 5 1.98 5 3 C5.33 3.66 5.66 4.32 6 5 C4.35 5.33 2.7 5.66 1 6 C0.34 5.01 -0.32 4.02 -1 3 C-0.67 2.01 -0.34 1.02 0 0 Z " fill="#EC7126" transform="translate(304,131)"/>
<path d="M0 0 C0 0.33 0 0.66 0 1 C-0.83144531 1.20496094 -1.66289062 1.40992188 -2.51953125 1.62109375 C-4.14955078 2.02521484 -4.14955078 2.02521484 -5.8125 2.4375 C-7.43091797 2.83775391 -7.43091797 2.83775391 -9.08203125 3.24609375 C-11.0740843 3.76077412 -13.04811524 4.34937175 -15 5 C-14.375 3.0625 -14.375 3.0625 -13 1 C-8.70090324 -0.19974793 -4.44057626 -0.08881153 0 0 Z " fill="#BE7143" transform="translate(389,205)"/>
<path d="M0 0 C0.66 0.33 1.32 0.66 2 1 C-0.65654657 4.73884332 -2.58110387 6.64978174 -7 8 C-6.8125 5.625 -6.8125 5.625 -6 3 C-3.5 1.75 -3.5 1.75 -1 1 C-0.67 0.67 -0.34 0.34 0 0 Z " fill="#DF702C" transform="translate(516,158)"/>
<path d="M0 0 C3.98381075 2.16264012 6.88983545 4.71211176 10 8 C9.67 8.66 9.34 9.32 9 10 C8.566875 9.505 8.13375 9.01 7.6875 8.5 C6.00259517 6.66781808 6.00259517 6.66781808 3 7 C3 5.68 3 4.36 3 3 C2.01 2.67 1.02 2.34 0 2 C0 1.34 0 0.68 0 0 Z " fill="#E19D6F" transform="translate(569,139)"/>
<path d="M0 0 C2.8125 0.625 2.8125 0.625 6 2 C7.875 5.125 7.875 5.125 9 8 C7.125 7.75 7.125 7.75 5 7 C4.30062468 5.68352881 3.63270867 4.34977849 3 3 C2.01 2.67 1.02 2.34 0 2 C0 1.34 0 0.68 0 0 Z " fill="#E0854B" transform="translate(424,134)"/>
<path d="M0 0 C3.72311198 2.48207465 5.41287799 5.02513507 6.6875 9.3125 C6.790625 9.869375 6.89375 10.42625 7 11 C3.17330957 7.57611908 1.27721526 4.99275057 0 0 Z " fill="#C17F62" transform="translate(332,238)"/>
<path d="M0 0 C-3.24509304 2.03977277 -6.40608886 3.66511872 -10 5 C-10.66 4.34 -11.32 3.68 -12 3 C-10.5682384 2.30062798 -9.12932968 1.61587282 -7.6875 0.9375 C-6.48673828 0.36322266 -6.48673828 0.36322266 -5.26171875 -0.22265625 C-3 -1 -3 -1 0 0 Z " fill="#DE8F64" transform="translate(361,184)"/>
<path d="M0 0 C0 3.30941204 -0.40339294 5.11090151 -2 8 C-4.625 8.8125 -4.625 8.8125 -7 9 C-5.64978174 4.58110387 -3.73884332 2.65654657 0 0 Z " fill="#E49460" transform="translate(290,138)"/>
<path d="M0 0 C0.33 0 0.66 0 1 0 C2.700773 6.73281213 3.10765663 12.13252891 2 19 C1.67 19 1.34 19 1 19 C0.17648136 12.61773055 -0.12086218 6.43255401 0 0 Z " fill="#DD7B3F" transform="translate(244,133)"/>
<path d="M0 0 C4.47959418 1.14185734 8.14522751 2.43015167 12 5 C10 6 10 6 7.87109375 5.29296875 C7.06800781 4.92816406 6.26492188 4.56335938 5.4375 4.1875 C4.63183594 3.83042969 3.82617188 3.47335937 2.99609375 3.10546875 C1 2 1 2 0 0 Z " fill="#A35737" transform="translate(346,254)"/>
<path d="M0 0 C0.66 0 1.32 0 2 0 C1.71788123 1.6266848 1.42397625 3.25132896 1.125 4.875 C0.96257813 5.77992188 0.80015625 6.68484375 0.6328125 7.6171875 C0 10 0 10 -2 12 C-1.85962479 10.18706911 -1.71255111 8.3746557 -1.5625 6.5625 C-1.48128906 5.55316406 -1.40007813 4.54382813 -1.31640625 3.50390625 C-1 1 -1 1 0 0 Z " fill="#BE6739" transform="translate(584,223)"/>
<path d="M0 0 C0.75 1.75 0.75 1.75 1 4 C-0.6875 6.3125 -0.6875 6.3125 -3 8 C-5.25 7.75 -5.25 7.75 -7 7 C-5.47005208 5.76302083 -3.94010417 4.52604167 -2.41015625 3.2890625 C-0.86733563 2.0333609 -0.86733563 2.0333609 0 0 Z " fill="#CF9168" transform="translate(549,220)"/>
<path d="M0 0 C0.99 0.33 1.98 0.66 3 1 C2.34 4.3 1.68 7.6 1 11 C0 7 0 7 1 5 C0.34 5 -0.32 5 -1 5 C-0.67 3.35 -0.34 1.7 0 0 Z " fill="#CA8151" transform="translate(585,218)"/>
<path d="M0 0 C0.33 0.66 0.66 1.32 1 2 C1.99 1.67 2.98 1.34 4 1 C4 2.65 4 4.3 4 6 C3.34 6 2.68 6 2 6 C2 5.34 2 4.68 2 4 C0.68 3.67 -0.64 3.34 -2 3 C-2.33 3.66 -2.66 4.32 -3 5 C-2.625 3.0625 -2.625 3.0625 -2 1 C-1.34 0.67 -0.68 0.34 0 0 Z " fill="#E56F25" transform="translate(436,146)"/>
<path d="M0 0 C0.33 0.99 0.66 1.98 1 3 C1.66 3 2.32 3 3 3 C3 6.3 3 9.6 3 13 C2.67 13 2.34 13 2 13 C-0.28571429 4.57142857 -0.28571429 4.57142857 0 0 Z " fill="#C25F27" transform="translate(444,227)"/>
<path d="M0 0 C0.99 0.33 1.98 0.66 3 1 C3.33 2.98 3.66 4.96 4 7 C5.32 7.33 6.64 7.66 8 8 C6.68 8.33 5.36 8.66 4 9 C0 2.25 0 2.25 0 0 Z " fill="#BE9374" transform="translate(346,158)"/>
<path d="M0 0 C0.66 0 1.32 0 2 0 C1.60196439 2.88575819 1.20990931 3.82189513 -1.0625 5.75 C-1.701875 6.1625 -2.34125 6.575 -3 7 C-3.66 6.67 -4.32 6.34 -5 6 C-3.38405168 3.95880212 -1.7143618 1.95927063 0 0 Z " fill="#B4541A" transform="translate(571,243)"/>
<path d="M0 0 C0.928125 0.2784375 0.928125 0.2784375 1.875 0.5625 C4.04160178 1.23686176 4.04160178 1.23686176 6 0 C5.67 1.32 5.34 2.64 5 4 C3.68 4.33 2.36 4.66 1 5 C0.67 3.35 0.34 1.7 0 0 Z " fill="#CD5D1B" transform="translate(474,228)"/>
<path d="M0 0 C0.99 0 1.98 0 3 0 C3 1.65 3 3.3 3 5 C2.01 5 1.02 5 0 5 C-0.5625 3.0625 -0.5625 3.0625 -1 1 C-0.67 0.67 -0.34 0.34 0 0 Z " fill="#EE6C1D" transform="translate(293,137)"/>
<path d="M0 0 C2.31 0 4.62 0 7 0 C7 0.99 7 1.98 7 3 C4.36 2.67 1.72 2.34 -1 2 C-0.67 1.34 -0.34 0.68 0 0 Z " fill="#E29465" transform="translate(403,128)"/>
<path d="M0 0 C-1.28650706 0.69710731 -2.57940665 1.38242876 -3.875 2.0625 C-4.95394531 2.63677734 -4.95394531 2.63677734 -6.0546875 3.22265625 C-6.69664062 3.47917969 -7.33859375 3.73570312 -8 4 C-8.66 3.67 -9.32 3.34 -10 3 C-6.81859267 -0.48439851 -4.56758339 -1.41752588 0 0 Z " fill="#9E5B35" transform="translate(403,253)"/>
<path d="M0 0 C0.99 0.33 1.98 0.66 3 1 C3.66 0.67 4.32 0.34 5 0 C5 2.64 5 5.28 5 8 C2.27573689 5.64722731 1.1858237 3.37503669 0 0 Z " fill="#B9561B" transform="translate(410,244)"/>
<path d="M0 0 C3.625 -0.1875 3.625 -0.1875 7 0 C7 0.66 7 1.32 7 2 C2.545 2.495 2.545 2.495 -2 3 C-1.34 2.01 -0.68 1.02 0 0 Z " fill="#C36D3F" transform="translate(564,171)"/>
<path d="M0 0 C-0.99 1.485 -0.99 1.485 -2 3 C-5.625 3.1875 -5.625 3.1875 -9 3 C-5.92807025 0.26939578 -4.09590633 -0.34132553 0 0 Z " fill="#E4945F" transform="translate(504,133)"/>
<path d="M0 0 C0 2.31 0 4.62 0 7 C-0.99 6.67 -1.98 6.34 -3 6 C-3.33 4.35 -3.66 2.7 -4 1 C-2 0 -2 0 0 0 Z " fill="#BF5617" transform="translate(488,240)"/>
<path d="M0 0 C1.65 0 3.3 0 5 0 C5.33 1.98 5.66 3.96 6 6 C3.97945196 4.35830472 1.97956942 2.69088222 0 1 C0 0.67 0 0.34 0 0 Z " fill="#AC673C" transform="translate(479,240)"/>
<path d="M0 0 C0.33 1.32 0.66 2.64 1 4 C-0.8125 5.0625 -0.8125 5.0625 -3 6 C-3.99 5.67 -4.98 5.34 -6 5 C-4.02 3.35 -2.04 1.7 0 0 Z " fill="#D39268" transform="translate(403,223)"/>
<path d="M0 0 C-1.0625 1.5625 -1.0625 1.5625 -3 3 C-6.6875 2.6875 -6.6875 2.6875 -10 2 C-6.3558226 -0.4294516 -4.28758728 -0.16179575 0 0 Z " fill="#E1722F" transform="translate(360,135)"/>
</svg>
