<?xml version="1.0" encoding="UTF-8"?>
<svg version="1.1" xmlns="http://www.w3.org/2000/svg" width="722" height="345">
<path d="M0 0 C1.4572951 3.84751514 0.47316868 6.35333864 -0.78125 10.17578125 C-3.04787823 17.70492048 -4.2132205 25.14340832 -5.20892334 32.92926025 C-5.70674282 36.79145843 -6.24861132 40.64747947 -6.7890625 44.50390625 C-6.9459404 45.62675018 -6.9459404 45.62675018 -7.10598755 46.77227783 C-10.6823806 72.15064825 -17.92641006 96.83970182 -39.125 113.1875 C-52.59577161 122.44865548 -69.41261768 129.20635508 -86 128 C-86.495 130.97 -86.495 130.97 -87 134 C-85.88625 133.95746094 -84.7725 133.91492188 -83.625 133.87109375 C-64.5530891 133.90042226 -44.77701998 142.01334062 -31.28125 155.23046875 C-29 158 -29 158 -29 162 C-32.83352248 161.40101211 -36.24970778 160.16814318 -39.86767578 158.7956543 C-54.45989866 153.35072021 -71.35824587 149 -87 149 C-87.12669988 162.71672425 -86.84264098 176.30708413 -86 190 C-91.94 190 -97.88 190 -104 190 C-104.99822799 187.00531604 -105.12895023 185.00651886 -105.1328125 181.87890625 C-105.13482666 180.86594482 -105.13684082 179.8529834 -105.13891602 178.80932617 C-105.13432373 177.73787354 -105.12973145 176.6664209 -105.125 175.5625 C-105.12234131 174.47751221 -105.11968262 173.39252441 -105.11694336 172.2746582 C-105.00868782 154.02606347 -105.00868782 154.02606347 -103 148 C-125.21293767 151.51837916 -125.21293767 151.51837916 -147 157 C-148.50433594 157.41765625 -148.50433594 157.41765625 -150.0390625 157.84375 C-154.98642563 159.08073071 -154.98642563 159.08073071 -159 162 C-160.32 162 -161.64 162 -163 162 C-161.72532757 154.98930161 -155.79206965 150.26970094 -150.1875 146.375 C-135.8376626 137.74144398 -117.51324088 133.97731426 -101 133 C-100.9175 131.700625 -100.835 130.40125 -100.75 129.0625 C-97.78252138 101.4688027 -84.44880199 77.77309775 -68 56 C-75.4356368 61.73753289 -81.04962779 68.73590011 -86.28515625 76.48828125 C-87.398095 78.11839428 -88.55028644 79.72263566 -89.74609375 81.29296875 C-98.12258311 92.4305281 -102.56422982 105.91754417 -107 119 C-109.58353404 118.64365048 -110.74751386 118.27631774 -112.53125 116.32421875 C-122.71420451 100.21023488 -126.32427973 83.23316159 -122.46484375 64.38671875 C-119.38880506 54.0166003 -112.3006023 39.94205147 -103 34 C-102.34 34 -101.68 34 -101 34 C-100.67 33.01 -100.34 32.02 -100 31 C-73.24727762 9.22452829 -34.03290716 -0.7090189 0 0 Z M-67 52 C-66.67 52.66 -66.34 53.32 -66 54 C-65.67 53.34 -65.34 52.68 -65 52 C-65.66 52 -66.32 52 -67 52 Z " fill="#83D33E" transform="translate(428,76)"/>
<path d="M0 0 C3.28871822 2.84124115 6.3583435 5.66460281 9.125 9.0234375 C9.125 10.3434375 9.125 11.6634375 9.125 13.0234375 C5.29147752 12.42444961 1.87529222 11.19158068 -1.74267578 9.8190918 C-16.33489866 4.37415771 -33.23324587 0.0234375 -48.875 0.0234375 C-49.00169988 13.74016175 -48.71764098 27.33052163 -47.875 41.0234375 C-53.815 41.0234375 -59.755 41.0234375 -65.875 41.0234375 C-66.87322799 38.02875354 -67.00395023 36.02995636 -67.0078125 32.90234375 C-67.00982666 31.88938232 -67.01184082 30.8764209 -67.01391602 29.83276367 C-67.00932373 28.76131104 -67.00473145 27.6898584 -67 26.5859375 C-66.99734131 25.50094971 -66.99468262 24.41596191 -66.99194336 23.2980957 C-66.88368782 5.04950097 -66.88368782 5.04950097 -64.875 -0.9765625 C-87.08793767 2.54181666 -87.08793767 2.54181666 -108.875 8.0234375 C-109.87789063 8.301875 -110.88078125 8.5803125 -111.9140625 8.8671875 C-116.86142563 10.10416821 -116.86142563 10.10416821 -120.875 13.0234375 C-122.195 13.0234375 -123.515 13.0234375 -124.875 13.0234375 C-123.60032757 6.01273911 -117.66706965 1.29313844 -112.0625 -2.6015625 C-100.65201107 -9.46666435 -86.8832347 -12.70787414 -73.875 -14.9765625 C-72.83988281 -15.16863281 -71.80476563 -15.36070312 -70.73828125 -15.55859375 C-48.13869994 -18.00364451 -18.39340454 -14.77975082 0 0 Z " fill="#E86D24" transform="translate(389.875,224.9765625)"/>
<path d="M0 0 C0.66 0.33 1.32 0.66 2 1 C1.70996094 1.6290625 1.41992188 2.258125 1.12109375 2.90625 C-0.37347284 7.03062887 -1.12665205 11.19642351 -1.9375 15.5 C-3.08661849 21.44546257 -4.2773832 27.36068867 -5.6875 33.25 C-6.77959924 37.8368168 -7.47013023 42.31948373 -8 47 C-8.33 47.66 -8.66 48.32 -9 49 C10.90215136 45.23383697 10.90215136 45.23383697 28.27734375 35.359375 C30.65541808 33.48279934 33.2476732 32.23854706 36 31 C36.495 32.485 36.495 32.485 37 34 C36.0409375 34.5878125 36.0409375 34.5878125 35.0625 35.1875 C32.76504594 36.81053813 32.76504594 36.81053813 32.66015625 39.37109375 C31.30917971 44.75101806 25.47619439 47.2494413 21 50 C7.62711684 57.43941923 -6.68914166 61.33862383 -22 62 C-22.33 63.32 -22.66 64.64 -23 66 C-23.99 66 -24.98 66 -26 66 C-26 63.36 -26 60.72 -26 58 C-24.68 58.33 -23.36 58.66 -22 59 C-21.896875 57.9275 -21.79375 56.855 -21.6875 55.75 C-19.51611394 38.6201766 -12.88123636 20.36093547 -5 5 C-4.34 5 -3.68 5 -3 5 C-2.87625 4.360625 -2.7525 3.72125 -2.625 3.0625 C-2.315625 2.0415625 -2.315625 2.0415625 -2 1 C-1.34 0.67 -0.68 0.34 0 0 Z " fill="#569D27" transform="translate(362,143)"/>
<path d="M0 0 C4.62 0 9.24 0 14 0 C14.80611294 4.03056468 15.26355117 7.69044077 15.53515625 11.76953125 C15.62216797 13.07083984 15.70917969 14.37214844 15.79882812 15.71289062 C15.84209229 16.38682861 15.88535645 17.0607666 15.92993164 17.75512695 C16.06144063 19.79605932 16.19926639 21.83649309 16.33789062 23.87695312 C16.75897867 30.28825601 17 36.5623649 17 43 C11.06 43 5.12 43 -1 43 C-2.55002111 38.34993668 -2.19047391 33.68376555 -2.1875 28.8125 C-2.18814453 27.74 -2.18878906 26.6675 -2.18945312 25.5625 C-2.1321713 16.86607803 -1.32162122 8.59053791 0 0 Z " fill="#4E942B" transform="translate(325,223)"/>
<path d="M0 0 C1 2 1 2 -0.07421875 5.23828125 C-0.60598789 6.59871129 -1.14418292 7.95664054 -1.6875 9.3125 C-6.08611491 20.6714485 -9.42649937 32.0878115 -12 44 C-12.99 44 -13.98 44 -15 44 C-15.33 46.31 -15.66 48.62 -16 51 C-15.01 51 -14.02 51 -13 51 C-12.67 49.35 -12.34 47.7 -12 46 C-11.34 46 -10.68 46 -10 46 C-10 48.31 -10 50.62 -10 53 C-14.95 52.67 -19.9 52.34 -25 52 C-25 45.57982066 -24.2388179 40.68754908 -22.75 34.5625 C-22.54503906 33.65951172 -22.34007812 32.75652344 -22.12890625 31.82617188 C-20.75112407 26.06036222 -18.84716624 21.2015537 -16 16 C-15.34 16 -14.68 16 -14 16 C-13.87882812 15.43410156 -13.75765625 14.86820313 -13.6328125 14.28515625 C-13.46523438 13.55167969 -13.29765625 12.81820312 -13.125 12.0625 C-12.96257812 11.33160156 -12.80015625 10.60070312 -12.6328125 9.84765625 C-12 8 -12 8 -10 7 C-9.27306096 5.02111039 -8.60183749 3.02045442 -8 1 C-6.865625 1.020625 -5.73125 1.04125 -4.5625 1.0625 C-1.18424326 1.41577477 -1.18424326 1.41577477 0 0 Z " fill="#73BF39" transform="translate(352,158)"/>
<path d="M0 0 C1.4342305 0.01509716 2.86847664 0.02877654 4.30273438 0.04101562 C7.76465639 0.07357 11.22597237 0.12506379 14.6875 0.1875 C14.6875 0.8475 14.6875 1.5075 14.6875 2.1875 C15.6775 2.5175 16.6675 2.8475 17.6875 3.1875 C17.1925 3.991875 16.6975 4.79625 16.1875 5.625 C14.60330347 7.83646185 14.60330347 7.83646185 14.6875 9.1875 C13.99599854 9.21255615 13.30449707 9.2376123 12.59204102 9.26342773 C9.47782134 9.37902161 6.36393211 9.50191242 3.25 9.625 C1.61708008 9.68397461 1.61708008 9.68397461 -0.04882812 9.74414062 C-1.08330078 9.78603516 -2.11777344 9.82792969 -3.18359375 9.87109375 C-4.14193115 9.90775146 -5.10026855 9.94440918 -6.08764648 9.98217773 C-8.28388925 9.94584424 -8.28388925 9.94584424 -9.3125 11.1875 C-12.00904854 11.26069621 -14.67941458 11.27992537 -17.375 11.25 C-18.51291992 11.24323242 -18.51291992 11.24323242 -19.67382812 11.23632812 C-21.55341871 11.2245068 -23.43296899 11.20657078 -25.3125 11.1875 C-25.3125 11.8475 -25.3125 12.5075 -25.3125 13.1875 C-27.6225 13.1875 -29.9325 13.1875 -32.3125 13.1875 C-32.3125 13.8475 -32.3125 14.5075 -32.3125 15.1875 C-35.9425 15.5175 -39.5725 15.8475 -43.3125 16.1875 C-43.3125 9.82386364 -43.3125 9.82386364 -41.3125 7.1875 C-37.23336433 5.33334742 -33.7596735 4.97572983 -29.3125 5.1875 C-29.3125 4.5275 -29.3125 3.8675 -29.3125 3.1875 C-19.42925782 0.35931337 -10.17111929 -0.18916926 0 0 Z " fill="#E97024" transform="translate(329.3125,211.8125)"/>
<path d="M0 0 C-0.66 0 -1.32 0 -2 0 C-2 0.66 -2 1.32 -2 2 C-5.96 2.99 -9.92 3.98 -14 5 C-13.34 5.66 -12.68 6.32 -12 7 C-12.99 7.33 -13.98 7.66 -15 8 C-14.67 8.66 -14.34 9.32 -14 10 C-14.66 10 -15.32 10 -16 10 C-15.67 10.66 -15.34 11.32 -15 12 C-11.7 12 -8.4 12 -5 12 C-5 11.34 -5 10.68 -5 10 C-2.69 10 -0.38 10 2 10 C2 9.34 2 8.68 2 8 C3.14339844 7.93941406 4.28679687 7.87882813 5.46484375 7.81640625 C6.95574305 7.73201572 8.44662775 7.64736698 9.9375 7.5625 C10.69224609 7.52318359 11.44699219 7.48386719 12.22460938 7.44335938 C15.91944187 7.55961976 15.91944187 7.55961976 19 6 C20.92478813 5.84193469 22.8549921 5.748865 24.78515625 5.68359375 C25.95498047 5.64169922 27.12480469 5.59980469 28.33007812 5.55664062 C29.56177734 5.51732422 30.79347656 5.47800781 32.0625 5.4375 C33.91584961 5.37272461 33.91584961 5.37272461 35.80664062 5.30664062 C38.87097335 5.20015802 41.93539073 5.09814576 45 5 C45.495 5.99 45.495 5.99 46 7 C51.57043102 9.15221199 57.07908244 9.37739518 63.01171875 9.65625 C65.87805616 9.98597247 67.60554544 10.42986587 70 12 C70.495 12.99 70.495 12.99 71 14 C63.96506946 13.24442352 56.95201886 12.36244287 49.9375 11.4375 C48.88111328 11.29892578 47.82472656 11.16035156 46.73632812 11.01757812 C44.15744754 10.67917298 41.57867543 10.33996428 39 10 C38.34 10.99 37.68 11.98 37 13 C37 11.35 37 9.7 37 8 C-0.35065968 9.32993861 -0.35065968 9.32993861 -33 23 C-34.32 23 -35.64 23 -37 23 C-35.88299244 16.8564584 -31.33893599 12.83638593 -26.58203125 9.1015625 C-20.19954756 4.78372272 -7.89675507 -3.10437546 0 0 Z " fill="#E66E26" transform="translate(302,215)"/>
<path d="M0 0 C1.4748768 3.8706695 0.45506421 6.44143598 -0.796875 10.2890625 C-3.09354048 17.91233166 -4.26815792 25.47197606 -5.25 33.375 C-5.42350581 34.70846035 -5.59798144 36.04179487 -5.7734375 37.375 C-6.19177283 40.58223756 -6.60048279 43.79037378 -7 47 C-7.33 47 -7.66 47 -8 47 C-8.35371012 30.98479193 -8.35371012 30.98479193 -6.578125 24.50390625 C-5.73442152 20.84975806 -5.32146821 17.15833854 -4.875 13.4375 C-4.74375732 12.34501953 -4.74375732 12.34501953 -4.60986328 11.23046875 C-4.40320362 9.48737563 -4.20111861 7.74374113 -4 6 C-4.99 5.67 -5.98 5.34 -7 5 C-6.34 4.34 -5.68 3.68 -5 3 C-5.556875 3.0721875 -6.11375 3.144375 -6.6875 3.21875 C-10.6482916 3.7004679 -14.50690766 4.0578709 -18.5 4 C-19.655 4 -20.81 4 -22 4 C-22.33 4.33 -22.66 4.66 -23 5 C-26.0630864 5.53682958 -29.13599251 5.96565329 -32.21484375 6.40234375 C-35.12520618 6.7631995 -35.12520618 6.7631995 -37 9 C-39.125 9.625 -39.125 9.625 -41 10 C-41 10.66 -41 11.32 -41 12 C-41.721875 11.649375 -42.44375 11.29875 -43.1875 10.9375 C-46.37268865 9.87577045 -47.83526262 10.00060925 -51 11 C-51.99 11.66 -52.98 12.32 -54 13 C-57.1875 13.125 -57.1875 13.125 -60 13 C-60 13.66 -60 14.32 -60 15 C-63.98636608 16.43952108 -68.03206841 17.59671872 -72.125 18.6875 C-73.13820313 18.95949219 -74.15140625 19.23148438 -75.1953125 19.51171875 C-77.99262747 19.99871648 -79.3424965 19.77264585 -82 19 C-60.73888647 10.37359196 -40.91346316 3.79710935 -18 1 C-17.18958252 0.90066162 -16.37916504 0.80132324 -15.54418945 0.69897461 C-10.31456105 0.08509228 -5.26732741 -0.08360837 0 0 Z M-9 5 C-8.34 5.33 -7.68 5.66 -7 6 C-8.65 6.66 -10.3 7.32 -12 8 C-11.01 7.01 -10.02 6.02 -9 5 Z " fill="#A5E569" transform="translate(428,76)"/>
<path d="M0 0 C1.65 0 3.3 0 5 0 C5 0.66 5 1.32 5 2 C4.01 2.33 3.02 2.66 2 3 C1.11148941 5.5939355 1.11148941 5.5939355 0.5625 8.6875 C-0.54737268 13.62351272 -1.97238683 16.89807248 -5 21 C-6.24324147 24.2249208 -6.24324147 24.2249208 -7 27 C-7.66 27 -8.32 27 -9 27 C-9.2475 27.845625 -9.495 28.69125 -9.75 29.5625 C-11.13973627 33.38427474 -12.91120838 36.51868063 -15 40 C-15.33 39.34 -15.66 38.68 -16 38 C-18.97 38.495 -18.97 38.495 -22 39 C-22.66 40.98 -23.32 42.96 -24 45 C-24.66 45 -25.32 45 -26 45 C-26.144375 45.94875 -26.28875 46.8975 -26.4375 47.875 C-27 51 -27 51 -28 53 C-28.66 53 -29.32 53 -30 53 C-28.12090218 46.71607581 -25.72263588 41.08239926 -22.5 35.375 C-21.85285034 34.21919434 -21.85285034 34.21919434 -21.19262695 33.04003906 C-16.03520198 24.03374805 -9.98755528 15.62853065 -3.2265625 7.7578125 C-0.99718531 4.99651373 -0.3071488 3.48101971 0 0 Z " fill="#87DB44" transform="translate(366,121)"/>
<path d="M0 0 C0.66 0 1.32 0 2 0 C1.99214478 1.07314453 1.99214478 1.07314453 1.98413086 2.16796875 C1.96319704 5.44530338 1.95028798 8.72262387 1.9375 12 C1.92912109 13.12535156 1.92074219 14.25070313 1.91210938 15.41015625 C1.89806962 20.21175381 1.89028514 24.87345802 2.62890625 29.625 C3 33 3 33 1 36 C1.33 36.99 1.66 37.98 2 39 C0.68 39.66 -0.64 40.32 -2 41 C-7.99153887 32.0126917 -5.97547221 19.26882232 -5 9 C-4.01 8.67 -3.02 8.34 -2 8 C-1.855625 6.865625 -1.71125 5.73125 -1.5625 4.5625 C-1 1 -1 1 0 0 Z " fill="#78C333" transform="translate(310,134)"/>
<path d="M0 0 C0.54400237 9.20174215 -3.80725172 16.03937555 -9.46875 23.0625 C-11.59579422 25.43186571 -13.75388582 27.74369936 -16 30 C-16.62109375 28.140625 -16.62109375 28.140625 -17 26 C-15.0625 23.75 -15.0625 23.75 -13 22 C-14.32 22 -15.64 22 -17 22 C-17 21.34 -17 20.68 -17 20 C-16.34 20 -15.68 20 -15 20 C-15 19.34 -15 18.68 -15 18 C-14.34 18 -13.68 18 -13 18 C-12.87625 17.4225 -12.7525 16.845 -12.625 16.25 C-11.99351176 13.97664233 -11.11141809 12.0746471 -10 10 C-9.34 10 -8.68 10 -8 10 C-7.855625 9.0925 -7.71125 8.185 -7.5625 7.25 C-6.64 1.92 -6.64 1.92 -6 0 C-3.50907189 -1.24546405 -2.58919267 -0.7767578 0 0 Z " fill="#73C236" transform="translate(411,154)"/>
<path d="M0 0 C0 0.66 0 1.32 0 2 C-0.70125 2.66 -1.4025 3.32 -2.125 4 C-7.75242764 9.42018526 -11.14806646 16.87829833 -14.140625 23.9921875 C-15.01676485 26.03916878 -15.98670701 28.0178567 -17 30 C-16.34 30.33 -15.68 30.66 -15 31 C-15.928125 32.11375 -15.928125 32.11375 -16.875 33.25 C-18.60437281 35.48801188 -19.86106661 37.43739987 -21 40 C-21.33 39.34 -21.66 38.68 -22 38 C-21.0625 35.375 -21.0625 35.375 -20 33 C-20.99 33 -21.98 33 -23 33 C-21.96973771 30.30546787 -20.88336984 27.78617804 -19.5 25.25 C-17.65561611 21.25383491 -16.81341733 17.30632704 -16 13 C-14.68 12.67 -13.36 12.34 -12 12 C-12.33 10.35 -12.66 8.7 -13 7 C-12.0925 6.401875 -11.185 5.80375 -10.25 5.1875 C-7.12252644 3.14718226 -7.12252644 3.14718226 -4.8125 1.25 C-3 0 -3 0 0 0 Z " fill="#7FCF37" transform="translate(383,111)"/>
<path d="M0 0 C0 0.33 0 0.66 0 1 C-1.98 1 -3.96 1 -6 1 C-6 0.34 -6 -0.32 -6 -1 C-8.37484362 -1.16920005 -10.74983478 -1.33542863 -13.125 -1.5 C-13.79015625 -1.54769531 -14.4553125 -1.59539062 -15.140625 -1.64453125 C-19.10389354 -1.91652027 -23.02914621 -2.00585672 -27 -2 C-29.27357257 -2.44208355 -30.92885291 -2.96442646 -33 -4 C-33 -4.66 -33 -5.32 -33 -6 C-37.3601282 -5.88168573 -41.72003451 -5.75743287 -46.07983398 -5.62768555 C-47.56286015 -5.5843867 -49.04593454 -5.54270801 -50.52905273 -5.50268555 C-52.66144339 -5.44486042 -54.79359242 -5.38120168 -56.92578125 -5.31640625 C-58.20880127 -5.27974854 -59.49182129 -5.24309082 -60.8137207 -5.20532227 C-64.02111551 -5.13438766 -64.02111551 -5.13438766 -67 -4 C-68.39439664 -3.93334624 -69.79169875 -3.91461801 -71.1875 -3.9375 C-73.0746875 -3.9684375 -73.0746875 -3.9684375 -75 -4 C-54.60145412 -15.73685177 -20.17699672 -9.23766115 0 0 Z " fill="#D09750" transform="translate(377,218)"/>
<path d="M0 0 C4.23347844 1.41115948 8.43278664 1.38377813 12.87109375 1.62109375 C15.79460651 1.97512713 17.56369874 2.39307789 20 4 C20.495 4.99 20.495 4.99 21 6 C13.96506946 5.24442352 6.95201886 4.36244287 -0.0625 3.4375 C-1.11888672 3.29892578 -2.17527344 3.16035156 -3.26367188 3.01757812 C-5.84255246 2.67917298 -8.42132457 2.33996428 -11 2 C-11.66 2.99 -12.32 3.98 -13 5 C-13 3.35 -13 1.7 -13 0 C-14.26972656 0.144375 -15.53945313 0.28875 -16.84765625 0.4375 C-27.28925038 1.57935854 -37.4940086 2.28652704 -48 2 C-48 1.34 -48 0.68 -48 0 C-46.85660156 -0.06058594 -45.71320313 -0.12117187 -44.53515625 -0.18359375 C-43.04425695 -0.26798428 -41.55337225 -0.35263302 -40.0625 -0.4375 C-39.30775391 -0.47681641 -38.55300781 -0.51613281 -37.77539062 -0.55664062 C-34.08055813 -0.44038024 -34.08055813 -0.44038024 -31 -2 C-27.05439945 -2.38462601 -23.08555711 -2.47039731 -19.125 -2.625 C-18.00996094 -2.6765625 -16.89492188 -2.728125 -15.74609375 -2.78125 C-14.67746094 -2.82507813 -13.60882813 -2.86890625 -12.5078125 -2.9140625 C-11.52441895 -2.9548291 -10.54102539 -2.9955957 -9.52783203 -3.03759766 C-5.85558546 -2.98297857 -3.2129173 -1.60645865 0 0 Z " fill="#C57B39" transform="translate(352,223)"/>
<path d="M0 0 C0.66 0 1.32 0 2 0 C-0.23130716 4.83449886 -3.0189869 9.41708821 -7 13 C-7 12.34 -7 11.68 -7 11 C-9.35785318 11.89335797 -9.35785318 11.89335797 -10.125 15.0625 C-10.558125 16.5165625 -10.558125 16.5165625 -11 18 C-10.67 17.34 -10.34 16.68 -10 16 C-9.34 16.33 -8.68 16.66 -8 17 C-8 20 -8 20 -9.375 21.4375 C-9.91125 21.953125 -10.4475 22.46875 -11 23 C-12.17574711 25.09989652 -12.17574711 25.09989652 -13 27 C-13.66 27 -14.32 27 -15 27 C-15 29.31 -15 31.62 -15 34 C-14.34 34.33 -13.68 34.66 -13 35 C-13.33 35.66 -13.66 36.32 -14 37 C-14.66 37 -15.32 37 -16 37 C-16.33 38.32 -16.66 39.64 -17 41 C-16.67 36.38 -16.34 31.76 -16 27 C-16.66 27.33 -17.32 27.66 -18 28 C-18.73075648 30.3140622 -19.40138258 32.64828869 -20 35 C-20.66 35 -21.32 35 -22 35 C-21.46007591 29.60075905 -19.59705965 25.65991399 -17 21 C-16.53078125 20.15566406 -16.0615625 19.31132813 -15.578125 18.44140625 C-12.82596592 13.66768703 -10.15046313 9.70176441 -6 6 C-5.443125 5.401875 -4.88625 4.80375 -4.3125 4.1875 C-3 3 -3 3 -1 3 C-0.67 2.01 -0.34 1.02 0 0 Z " fill="#8ACD57" transform="translate(328,107)"/>
<path d="M0 0 C-0.61875 0.28875 -1.2375 0.5775 -1.875 0.875 C-4.13325765 1.93720042 -4.13325765 1.93720042 -6 4 C-8.125 4.625 -8.125 4.625 -10 5 C-10 5.66 -10 6.32 -10 7 C-10.721875 6.649375 -11.44375 6.29875 -12.1875 5.9375 C-15.37268865 4.87577045 -16.83526262 5.00060925 -20 6 C-20.99 6.66 -21.98 7.32 -23 8 C-26.1875 8.125 -26.1875 8.125 -29 8 C-29 8.66 -29 9.32 -29 10 C-32.98636608 11.43952108 -37.03206841 12.59671872 -41.125 13.6875 C-42.13820313 13.95949219 -43.15140625 14.23148438 -44.1953125 14.51171875 C-46.99262747 14.99871648 -48.3424965 14.77264585 -51 14 C-47.22146577 12.43244544 -43.4352404 10.88526991 -39.64135742 9.35522461 C-38.35630888 8.83385105 -37.07334835 8.30729589 -35.79272461 7.77514648 C-28.67039947 4.81981329 -22.0580939 2.40672756 -14.26831055 2.12695312 C-12.04706542 2.00263416 -10.23986525 1.60288888 -8.125 0.9375 C-5.20890489 0.06267147 -3.01544326 -0.18275414 0 0 Z " fill="#93E44A" transform="translate(397,81)"/>
<path d="M0 0 C4.29 0 8.58 0 13 0 C13.33 3.3 13.66 6.6 14 10 C13.01 9.67 12.02 9.34 11 9 C8.94106379 8.77674186 6.87766347 8.59294241 4.8125 8.4375 C3.72582031 8.35371094 2.63914062 8.26992187 1.51953125 8.18359375 C0.68808594 8.12300781 -0.14335937 8.06242188 -1 8 C-0.67 5.36 -0.34 2.72 0 0 Z " fill="#36741B" transform="translate(326,223)"/>
<path d="M0 0 C1.65 0 3.3 0 5 0 C5 0.66 5 1.32 5 2 C4.01 2.33 3.02 2.66 2 3 C1.14845942 5.56176712 1.14845942 5.56176712 0.625 8.625 C-0.62725024 14.23668824 -2.32102532 17.62500309 -6 22 C-6.78375 21.814375 -7.5675 21.62875 -8.375 21.4375 C-10.97089775 20.74037734 -10.97089775 20.74037734 -13 22 C-11.39550335 18.47345008 -9.28731802 15.49483451 -7 12.375 C-6.29875 11.41335937 -5.5975 10.45171875 -4.875 9.4609375 C-3 7 -3 7 -1 5 C-0.35232207 2.42938689 -0.35232207 2.42938689 0 0 Z " fill="#8FDF57" transform="translate(366,121)"/>
<path d="M0 0 C8.31469717 0.97819967 15.61518393 7.98644834 21 14 C21.79296875 16.78515625 21.79296875 16.78515625 22 19 C16.23129963 18.09864057 10.85424369 16.23616246 6 13 C14.57142857 14 14.57142857 14 18 15 C18 14.34 18 13.68 18 13 C17.1028125 12.8453125 17.1028125 12.8453125 16.1875 12.6875 C13.70138466 11.90614947 12.77056558 10.85104584 11 9 C10.34 9 9.68 9 9 9 C9 8.01 9 7.02 9 6 C6.03 5.01 3.06 4.02 0 3 C0 2.01 0 1.02 0 0 Z " fill="#D59162" transform="translate(377,219)"/>
<path d="M0 0 C5.28 0 10.56 0 16 0 C16 0.33 16 0.66 16 1 C15.25951416 1.13575439 14.51902832 1.27150879 13.75610352 1.41137695 C10.35697306 2.03844739 6.95976408 2.67539889 3.5625 3.3125 C2.39783203 3.52583984 1.23316406 3.73917969 0.03320312 3.95898438 C-5.91720915 5.08201993 -11.56840934 6.32270196 -17.21508789 8.53588867 C-19 9 -19 9 -22 8 C-21.34 7.34 -20.68 6.68 -20 6 C-18.68 6 -17.36 6 -16 6 C-16 5.34 -16 4.68 -16 4 C-10.60539047 1.72858546 -5.73842251 1.79586639 0 2 C0 1.34 0 0.68 0 0 Z " fill="#DF8757" transform="translate(297,225)"/>
<path d="M0 0 C1.06528748 2.73019786 1.07998186 3.79298812 0.00390625 6.578125 C-0.47175781 7.45984375 -0.94742187 8.3415625 -1.4375 9.25 C-2.14712891 10.58804688 -2.14712891 10.58804688 -2.87109375 11.953125 C-3.24363281 12.62859375 -3.61617188 13.3040625 -4 14 C-3.34 14.33 -2.68 14.66 -2 15 C-2.928125 16.11375 -2.928125 16.11375 -3.875 17.25 C-5.60437281 19.48801188 -6.86106661 21.43739987 -8 24 C-8.33 23.34 -8.66 22.68 -9 22 C-8.0625 19.375 -8.0625 19.375 -7 17 C-7.99 17 -8.98 17 -10 17 C-8.64293196 13.36592837 -7.00749128 10.12987933 -5 6.8125 C-4.484375 5.95269531 -3.96875 5.09289062 -3.4375 4.20703125 C-2 2 -2 2 0 0 Z " fill="#6AC02A" transform="translate(370,127)"/>
<path d="M0 0 C0.66 0 1.32 0 2 0 C2 0.66 2 1.32 2 2 C3.32 1.67 4.64 1.34 6 1 C4.82832622 6.30402861 2.86983442 11.38397003 0 16 C-3.3125 17.1875 -3.3125 17.1875 -6 17 C-6.625 14.6875 -6.625 14.6875 -7 12 C-6.34 11.01 -5.68 10.02 -5 9 C-4.34 9 -3.68 9 -3 9 C-3 9.99 -3 10.98 -3 12 C-0.54420303 8.31435916 -0.54420303 8.31435916 0 4 C0 2.68 0 1.36 0 0 Z " fill="#75B348" transform="translate(328,160)"/>
<path d="M0 0 C0.33 0.66 0.66 1.32 1 2 C4.465 1.505 4.465 1.505 8 1 C8.2475 1.639375 8.495 2.27875 8.75 2.9375 C9.81562433 5.18741541 9.81562433 5.18741541 12.125 5.75 C12.74375 5.8325 13.3625 5.915 14 6 C14 6.66 14 7.32 14 8 C6.5403037 7.25403037 -0.68951218 5.63253871 -8 4 C-8 3.67 -8 3.34 -8 3 C-6.02 3 -4.04 3 -2 3 C-1.67 2.34 -1.34 1.68 -1 1 C-0.67 0.67 -0.34 0.34 0 0 Z " fill="#DF6A27" transform="translate(381,226)"/>
<path d="M0 0 C1.33333333 0.66666667 2.66666667 1.33333333 4 2 C8.23347844 3.41115948 12.43278664 3.38377813 16.87109375 3.62109375 C19.79460651 3.97512713 21.56369874 4.39307789 24 6 C24.33 6.66 24.66 7.32 25 8 C18.51158071 7.29516664 12.03126753 6.55543693 5.5625 5.6875 C4.66595703 5.58244141 3.76941406 5.47738281 2.84570312 5.36914062 C1.99041016 5.25119141 1.13511719 5.13324219 0.25390625 5.01171875 C-0.90129517 4.86416138 -0.90129517 4.86416138 -2.07983398 4.71362305 C-4 4 -4 4 -5.26586914 1.93676758 C-5.50813232 1.29763428 -5.75039551 0.65850098 -6 0 C-3 -1 -3 -1 0 0 Z " fill="#DF8454" transform="translate(348,221)"/>
<path d="M0 0 C11.9849778 0.14054878 21.95942411 1.11909288 33 6 C33 6.33 33 6.66 33 7 C31.02 7 29.04 7 27 7 C27 6.34 27 5.68 27 5 C24.62515638 4.83079995 22.25016522 4.66457137 19.875 4.5 C19.20984375 4.45230469 18.5446875 4.40460938 17.859375 4.35546875 C13.89610646 4.08347973 9.97085379 3.99414328 6 4 C3.72642743 3.55791645 2.07114709 3.03557354 0 2 C0 1.34 0 0.68 0 0 Z " fill="#E27123" transform="translate(344,212)"/>
<path d="M0 0 C0.33 0.99 0.66 1.98 1 3 C1.99 2.34 2.98 1.68 4 1 C4.99 1 5.98 1 7 1 C5.58319756 5.32046898 3.46236215 8.00461199 0.375 11.3125 C-0.44226563 12.19550781 -1.25953125 13.07851562 -2.1015625 13.98828125 C-3.04128906 14.98408203 -3.04128906 14.98408203 -4 16 C-4.62109375 14.140625 -4.62109375 14.140625 -5 12 C-3.0625 9.75 -3.0625 9.75 -1 8 C-2.32 8 -3.64 8 -5 8 C-5 7.34 -5 6.68 -5 6 C-4.34 6 -3.68 6 -3 6 C-3 5.34 -3 4.68 -3 4 C-2.34 4 -1.68 4 -1 4 C-0.67 2.68 -0.34 1.36 0 0 Z " fill="#6DB63A" transform="translate(399,168)"/>
<path d="M0 0 C-0.99 1.485 -0.99 1.485 -2 3 C-3.60593146 3.17084377 -5.21231185 3.33815671 -6.8203125 3.48828125 C-9.67644707 4.15880747 -11.79635358 5.49957841 -14.3125 7 C-19.56404198 10.04036641 -23.97392397 10.9738565 -30 11 C-26.09267473 7.09267473 -20.09195914 5.76117439 -15 3.8125 C-13.78570312 3.33619141 -12.57140625 2.85988281 -11.3203125 2.36914062 C-10.16273438 1.92376953 -9.00515625 1.47839844 -7.8125 1.01953125 C-6.74644531 0.60807861 -5.68039062 0.19662598 -4.58203125 -0.22729492 C-2 -1 -2 -1 0 0 Z " fill="#A9E46F" transform="translate(376,85)"/>
<path d="M0 0 C0.66 0.99 1.32 1.98 2 3 C1.360625 3.391875 0.72125 3.78375 0.0625 4.1875 C-2.23885669 5.8284555 -2.23885669 5.8284555 -2.4375 8.5 C-3 11 -3 11 -5.5625 12.8125 C-6.366875 13.204375 -7.17125 13.59625 -8 14 C-8.33 12.68 -8.66 11.36 -9 10 C-10.32 9.67 -11.64 9.34 -13 9 C-8.78744458 5.77002574 -4.63708939 2.60836278 0 0 Z " fill="#67AC3A" transform="translate(397,174)"/>
<path d="M0 0 C0.66 0 1.32 0 2 0 C2.26554687 0.63808594 2.53109375 1.27617187 2.8046875 1.93359375 C3.15789062 2.75988281 3.51109375 3.58617187 3.875 4.4375 C4.39707031 5.67306641 4.39707031 5.67306641 4.9296875 6.93359375 C5.8244937 9.15746715 5.8244937 9.15746715 8 10 C8.33 9.34 8.66 8.68 9 8 C9.66 8.66 10.32 9.32 11 10 C10.34 11.65 9.68 13.3 9 15 C9.99 15.33 10.98 15.66 12 16 C12 16.99 12 17.98 12 19 C9.38458456 18.63925304 8.26527944 18.31325551 6.53125 16.265625 C4.93787278 13.90807707 3.60035809 11.53704177 2.3125 9 C1.87550781 8.154375 1.43851562 7.30875 0.98828125 6.4375 C0 4 0 4 0 0 Z " fill="#66A243" transform="translate(309,176)"/>
<path d="M0 0 C1.5625 1.75 1.5625 1.75 3 4 C2.6875 6.125 2.6875 6.125 2 8 C2 8.66 2 9.32 2 10 C1.6875 12.0625 1.6875 12.0625 1 14 C0.01 14.33 -0.98 14.66 -2 15 C-3.29729053 12.40541894 -3.2042812 10.39552402 -3.25 7.5 C-3.27578125 6.5203125 -3.3015625 5.540625 -3.328125 4.53125 C-3.21984375 3.6959375 -3.1115625 2.860625 -3 2 C-2.01 1.34 -1.02 0.68 0 0 Z " fill="#68B72D" transform="translate(310,160)"/>
<path d="M0 0 C0.66 0 1.32 0 2 0 C2.33870183 3.99956416 2.66998725 7.99971026 3 12 C3.14308594 13.68802734 3.14308594 13.68802734 3.2890625 15.41015625 C3.77098607 21.29650845 4.11580219 27.0940881 4 33 C2.68 33 1.36 33 0 33 C0 32.34 0 31.68 0 31 C0.66 31 1.32 31 2 31 C2 27.7 2 24.4 2 21 C1.34 20.67 0.68 20.34 0 20 C0 13.4 0 6.8 0 0 Z " fill="#739B56" transform="translate(338,233)"/>
<path d="M0 0 C0.33 0 0.66 0 1 0 C1.8410478 3.6464806 2.11764968 6.99950907 2.09765625 10.73828125 C2.09443359 11.80498047 2.09121094 12.87167969 2.08789062 13.97070312 C2.07951172 15.07349609 2.07113281 16.17628906 2.0625 17.3125 C2.05798828 18.43462891 2.05347656 19.55675781 2.04882812 20.71289062 C2.03707313 23.4753151 2.02064077 26.23762998 2 29 C1.67 29 1.34 29 1 29 C-1.06170091 19.04931133 -0.95192877 10.0209799 0 0 Z " fill="#9DC977" transform="translate(305,143)"/>
<path d="M0 0 C0.66 0 1.32 0 2 0 C-0.23130716 4.83449886 -3.0189869 9.41708821 -7 13 C-7 12.34 -7 11.68 -7 11 C-9.51083114 12.25541557 -9.87125446 13.50063488 -11 16 C-11.66 16 -12.32 16 -13 16 C-11.59799333 11.5390697 -9.40216594 9.15322697 -6 6 C-5.1646875 5.1028125 -5.1646875 5.1028125 -4.3125 4.1875 C-3 3 -3 3 -1 3 C-0.67 2.01 -0.34 1.02 0 0 Z " fill="#A5DC73" transform="translate(328,107)"/>
<path d="M0 0 C0.94314127 3.41610225 1.08065117 6.45134864 1 10 C-0.32 10 -1.64 10 -3 10 C-3.66 11.98 -4.32 13.96 -5 16 C-5.66 16 -6.32 16 -7 16 C-7.144375 16.94875 -7.28875 17.8975 -7.4375 18.875 C-8 22 -8 22 -9 24 C-9.66 24 -10.32 24 -11 24 C-8.56705598 15.33263693 -4.34217123 7.82828494 0 0 Z " fill="#99D465" transform="translate(347,150)"/>
<path d="M0 0 C1.30245502 3.74912286 0.78479309 6.85052049 0.22265625 10.734375 C0.03896484 12.02988281 -0.14472656 13.32539062 -0.33398438 14.66015625 C-0.53499087 16.02346189 -0.73616487 17.38674285 -0.9375 18.75 C-1.1354666 20.12880579 -1.33274003 21.50771129 -1.52929688 22.88671875 C-2.01271523 26.25885653 -2.50321051 29.62981052 -3 33 C-3.33 33 -3.66 33 -4 33 C-4.40483725 21.45464138 -3.69445853 11.08337558 0 0 Z " fill="#C2EB9A" transform="translate(424,90)"/>
<path d="M0 0 C0.66 0.33 1.32 0.66 2 1 C2.37890625 3.546875 2.37890625 3.546875 2.5625 6.75 C2.79453493 10.59515022 3.15708034 14.23820976 4 18 C3.34 17.34 2.68 16.68 2 16 C1.01 16.33 0.02 16.66 -1 17 C-1.02691685 14.54159395 -1.04679802 12.08348118 -1.0625 9.625 C-1.07087891 8.92632812 -1.07925781 8.22765625 -1.08789062 7.5078125 C-1.11328125 2.2265625 -1.11328125 2.2265625 0 0 Z " fill="#72BC34" transform="translate(308,145)"/>
<path d="M0 0 C2.97 0.99 5.94 1.98 9 3 C9 3.99 9 4.98 9 6 C8.030625 5.979375 7.06125 5.95875 6.0625 5.9375 C3.12534105 5.64381501 3.12534105 5.64381501 2 7 C0.47480724 6.91062197 -1.04681929 6.75462854 -2.5625 6.5625 C-3.80193359 6.40974609 -3.80193359 6.40974609 -5.06640625 6.25390625 C-5.70449219 6.17011719 -6.34257812 6.08632812 -7 6 C-7 5.67 -7 5.34 -7 5 C-4.69 5 -2.38 5 0 5 C0 3.35 0 1.7 0 0 Z " fill="#E76B29" transform="translate(377,222)"/>
<path d="M0 0 C0 0.99 0 1.98 0 3 C-0.99 3.33 -1.98 3.66 -3 4 C-3.33 4.99 -3.66 5.98 -4 7 C-7.0051552 9.39046436 -9.00672335 10.91362812 -12.875 11.25 C-13.57625 11.1675 -14.2775 11.085 -15 11 C-10.70024145 6.12694031 -5.62775683 3.1799558 0 0 Z " fill="#9ADB5B" transform="translate(345,96)"/>
<path d="M0 0 C0 4.02046842 -1.26140024 5.11726341 -4 8 C-7.29281437 9.92080838 -10.31094464 11.14134056 -14 12 C-9.97121781 6.7045931 -5.82530885 3.20835538 0 0 Z " fill="#DE915F" transform="translate(282,220)"/>
<path d="M0 0 C1.65 0 3.3 0 5 0 C5 0.66 5 1.32 5 2 C4.01 2.33 3.02 2.66 2 3 C1.30654607 4.77808629 1.30654607 4.77808629 1 6.875 C0.32003272 10.09043851 -0.23377233 11.98819806 -3 14 C-5 13 -5 13 -6 11 C-5.195625 10.113125 -4.39125 9.22625 -3.5625 8.3125 C-1.2960841 5.61712968 -0.31582634 3.57936522 0 0 Z " fill="#9BE468" transform="translate(366,121)"/>
<path d="M0 0 C4.29 0 8.58 0 13 0 C13.33 3.3 13.66 6.6 14 10 C13.34 10 12.68 10 12 10 C11.67 7.69 11.34 5.38 11 3 C10.28972656 2.95101562 9.57945312 2.90203125 8.84765625 2.8515625 C7.92855469 2.77679688 7.00945312 2.70203125 6.0625 2.625 C5.14597656 2.55539063 4.22945313 2.48578125 3.28515625 2.4140625 C2.15400391 2.20910156 2.15400391 2.20910156 1 2 C0.67 1.34 0.34 0.68 0 0 Z " fill="#516619" transform="translate(326,223)"/>
<path d="M0 0 C0.66 0 1.32 0 2 0 C2.33 1.65 2.66 3.3 3 5 C5.97 5 8.94 5 12 5 C12.33 3.35 12.66 1.7 13 0 C13.66 0 14.32 0 15 0 C15 2.31 15 4.62 15 7 C10.05 6.67 5.1 6.34 0 6 C0 4.02 0 2.04 0 0 Z " fill="#7C9D40" transform="translate(327,204)"/>
<path d="M0 0 C0.66 0.33 1.32 0.66 2 1 C1.25 7.75 1.25 7.75 -1 10 C-2.32 10 -3.64 10 -5 10 C-5 8.35 -5 6.7 -5 5 C-3.68 4.67 -2.36 4.34 -1 4 C-0.67 2.68 -0.34 1.36 0 0 Z " fill="#68B92E" transform="translate(405,161)"/>
<path d="M0 0 C2.97 0 5.94 0 9 0 C8 3 8 3 5.75 4.125 C3.1726322 4.94507157 0.66380932 5.54334697 -2 6 C-1.49396008 3.83125748 -1.00016187 2.00032373 0 0 Z " fill="#CE7B49" transform="translate(267,232)"/>
<path d="M0 0 C2.25039617 3.37559426 2.17616009 3.97975643 1.6875 7.8125 C1.52507812 9.13314453 1.52507812 9.13314453 1.359375 10.48046875 C0.95296785 13.3297363 0.52143796 16.1693368 0 19 C-0.33 19 -0.66 19 -1 19 C-1.82810601 12.18491136 -2.50413785 6.48129797 0 0 Z " fill="#A9E379" transform="translate(418,121)"/>
<path d="M0 0 C6.83981276 0.51621228 12.63876684 2.48590969 19 5 C19 5.33 19 5.66 19 6 C17.02 6 15.04 6 13 6 C13 5.34 13 4.68 13 4 C12.39671875 3.96261719 11.7934375 3.92523438 11.171875 3.88671875 C3.23374341 3.23374341 3.23374341 3.23374341 0 0 Z " fill="#DE9D70" transform="translate(358,213)"/>
<path d="M0 0 C-0.66 0 -1.32 0 -2 0 C-2 0.66 -2 1.32 -2 2 C-3.91345327 2.53251766 -5.8309295 3.05059483 -7.75 3.5625 C-8.81734375 3.85253906 -9.8846875 4.14257812 -10.984375 4.44140625 C-13.84335927 4.97098494 -15.31597383 4.98370862 -18 4 C-15.75438718 3.13237686 -13.50473745 2.2807897 -11.25 1.4375 C-10.61578125 1.19064453 -9.9815625 0.94378906 -9.328125 0.68945312 C-5.88990821 -0.58197079 -3.47831118 -1.46686355 0 0 Z " fill="#DE8B61" transform="translate(302,215)"/>
<path d="M0 0 C0.33 0 0.66 0 1 0 C1.33 1.98 1.66 3.96 2 6 C1.01 6.495 1.01 6.495 0 7 C-0.65213292 9.02463255 -0.65213292 9.02463255 -1 11 C-1.99 11 -2.98 11 -4 11 C-4 8.36 -4 5.72 -4 3 C-2.68 3.33 -1.36 3.66 0 4 C0 2.68 0 1.36 0 0 Z " fill="#60A82D" transform="translate(340,198)"/>
<path d="M0 0 C0.66 0.66 1.32 1.32 2 2 C1.69609888 7.8754216 0.22698702 12.57777073 -2 18 C-3.23825459 14.28523623 -2.70587257 11.81171187 -2 8 C-1.67 7.67 -1.34 7.34 -1 7 C-0.63239269 4.67182036 -0.29758419 2.3381615 0 0 Z " fill="#9ED571" transform="translate(415,138)"/>
<path d="M0 0 C-5.625 3.875 -5.625 3.875 -9 5 C-9.66 5.66 -10.32 6.32 -11 7 C-11.33 6.01 -11.66 5.02 -12 4 C-8.14101327 -0.27244959 -5.61655982 -1.8053228 0 0 Z " fill="#8FE148" transform="translate(354,96)"/>
<path d="M0 0 C0.33 1.32 0.66 2.64 1 4 C3.64 4.33 6.28 4.66 9 5 C8.67 5.99 8.34 6.98 8 8 C5.66705225 8.04241723 3.33297433 8.04092937 1 8 C0 7 0 7 -0.0625 3.4375 C-0.041875 2.303125 -0.02125 1.16875 0 0 Z " fill="#42761C" transform="translate(341,196)"/>
<path d="M0 0 C0.33 0 0.66 0 1 0 C1.28875 1.134375 1.5775 2.26875 1.875 3.4375 C2.24625 4.613125 2.6175 5.78875 3 7 C3.66 7.33 4.32 7.66 5 8 C4.6875 9.9375 4.6875 9.9375 4 12 C3.01 12.33 2.02 12.66 1 13 C-0.32229189 10.35541621 -0.09677194 8.32238699 -0.0625 5.375 C-0.05347656 4.37210938 -0.04445313 3.36921875 -0.03515625 2.3359375 C-0.02355469 1.56507813 -0.01195312 0.79421875 0 0 Z " fill="#65AC32" transform="translate(307,162)"/>
<path d="M0 0 C3.33388318 0.16951948 4.94441987 0.43192871 7.6875 2.1875 C7.6875 2.8475 7.6875 3.5075 7.6875 4.1875 C-0.88392857 3.33035714 -0.88392857 3.33035714 -4.3125 1.1875 C-3.3125 0.1875 -3.3125 0.1875 0 0 Z " fill="#D86626" transform="translate(387.3125,229.8125)"/>
<path d="M0 0 C4 0 4 0 6 1 C5.67 2.65 5.34 4.3 5 6 C4.34 6 3.68 6 3 6 C3 6.66 3 7.32 3 8 C2.34 7.67 1.68 7.34 1 7 C0.59270772 4.67843403 0.25561323 2.3431213 0 0 Z " fill="#6FBE35" transform="translate(336,145)"/>
<path d="M0 0 C2.475 0.495 2.475 0.495 5 1 C5 5.95 5 10.9 5 16 C4.67 16 4.34 16 4 16 C3.67 12.04 3.34 8.08 3 4 C2.01 4.66 1.02 5.32 0 6 C0 4.02 0 2.04 0 0 Z " fill="#7EBF43" transform="translate(306,142)"/>
<path d="M0 0 C0.66 0.33 1.32 0.66 2 1 C1.34 2.65 0.68 4.3 0 6 C-0.66 6 -1.32 6 -2 6 C-2.12375 6.61875 -2.2475 7.2375 -2.375 7.875 C-3 10 -3 10 -5 12 C-4.67 9.36 -4.34 6.72 -4 4 C-2.68 3.67 -1.36 3.34 0 3 C0 2.01 0 1.02 0 0 Z " fill="#8BD84C" transform="translate(371,120)"/>
<path d="M0 0 C2.97 0 5.94 0 9 0 C10.10191901 4.40767604 9.58706842 5.8922935 8 10 C7.67 10 7.34 10 7 10 C7 7.03 7 4.06 7 1 C4.69 1 2.38 1 0 1 C0 0.67 0 0.34 0 0 Z " fill="#BBE788" transform="translate(419,76)"/>
<path d="M0 0 C0.66 0 1.32 0 2 0 C2 0.99 2 1.98 2 3 C2.66 2.67 3.32 2.34 4 2 C4 3.65 4 5.3 4 7 C2.35 7.33 0.7 7.66 -1 8 C-1.625 5.6875 -1.625 5.6875 -2 3 C-1.34 2.01 -0.68 1.02 0 0 Z " fill="#5FAE2D" transform="translate(323,169)"/>
<path d="M0 0 C0.99 0.33 1.98 0.66 3 1 C3.6875 3.0625 3.6875 3.0625 4 5 C3.34 5 2.68 5 2 5 C2 5.66 2 6.32 2 7 C1.34 7 0.68 7 0 7 C0 7.66 0 8.32 0 9 C-0.66 9 -1.32 9 -2 9 C-1.34 6.03 -0.68 3.06 0 0 Z " fill="#7ACB39" transform="translate(340,166)"/>
<path d="M0 0 C4.31392226 0.4793247 6.16569547 1.7457985 9 5 C8.01 5.495 8.01 5.495 7 6 C4.64018187 5.06421005 2.30368736 4.06652192 0 3 C0 2.01 0 1.02 0 0 Z " fill="#D57A49" transform="translate(377,219)"/>
<path d="M0 0 C0.66 0 1.32 0 2 0 C1.67 2.31 1.34 4.62 1 7 C0.34 6.67 -0.32 6.34 -1 6 C-1.33 7.32 -1.66 8.64 -2 10 C-2.99 10 -3.98 10 -5 10 C-3.66749209 6.4124787 -2.169283 3.1635377 0 0 Z " fill="#8FC557" transform="translate(314,123)"/>
<path d="M0 0 C0.66 0.33 1.32 0.66 2 1 C2 4 2 4 0.625 5.4375 C0.08875 5.953125 -0.4475 6.46875 -1 7 C-2.17574711 9.09989652 -2.17574711 9.09989652 -3 11 C-3.75 9.4375 -3.75 9.4375 -4 7 C-2.86915563 4.49713591 -1.47860484 2.32992278 0 0 Z " fill="#9DE15B" transform="translate(318,123)"/>
<path d="M0 0 C2.625 -0.1875 2.625 -0.1875 5 0 C5.33 0.66 5.66 1.32 6 2 C4.2984375 2.680625 4.2984375 2.680625 2.5625 3.375 C-1.04721692 4.57095806 -1.04721692 4.57095806 -2 7 C-2.66 7 -3.32 7 -4 7 C-2.79618552 4.50638429 -1.54571278 2.31856917 0 0 Z " fill="#92DF42" transform="translate(330,107)"/>
<path d="M0 0 C2.95857409 -0.05379226 5.91617721 -0.09357093 8.875 -0.125 C9.71675781 -0.14175781 10.55851562 -0.15851563 11.42578125 -0.17578125 C12.23144531 -0.18222656 13.03710938 -0.18867188 13.8671875 -0.1953125 C14.98262939 -0.21102295 14.98262939 -0.21102295 16.12060547 -0.22705078 C18 0 18 0 20 2 C15.89887971 2 11.83949709 1.76733462 7.75 1.5 C7.00492187 1.45230469 6.25984375 1.40460938 5.4921875 1.35546875 C3.66138552 1.23810965 1.83068258 1.11920724 0 1 C0 0.67 0 0.34 0 0 Z " fill="#D57329" transform="translate(324,221)"/>
<path d="M0 0 C0 0.66 0 1.32 0 2 C-5.24385089 3.7479503 -9.47322267 4.19392201 -15 4 C-10.46624261 1.35530819 -5.22699025 0 0 0 Z " fill="#C3F09B" transform="translate(392,80)"/>
<path d="M0 0 C0 0.66 0 1.32 0 2 C1.98 2 3.96 2 6 2 C2.73454239 3.88391785 -0.28111761 4.49287967 -4 5 C-4 4.34 -4 3.68 -4 3 C-4.66 2.67 -5.32 2.34 -6 2 C-2.25 0 -2.25 0 0 0 Z " fill="#7BA951" transform="translate(362,197)"/>
<path d="M0 0 C0.66 0.33 1.32 0.66 2 1 C1.29445932 4.66881155 -0.27735506 7.70450534 -2 11 C-2.95465783 8.83032311 -3.14401212 7.43671207 -2.3984375 5.17578125 C-1.64129615 3.4315257 -0.82390802 1.71372869 0 0 Z " fill="#4D931A" transform="translate(347,175)"/>
<path d="M0 0 C0.33 0.66 0.66 1.32 1 2 C1.66 2.33 2.32 2.66 3 3 C2.38125 3.7425 1.7625 4.485 1.125 5.25 C-0.60437281 7.48801188 -1.86106661 9.43739987 -3 12 C-4 10 -4 10 -3.22265625 7.6171875 C-2.83980469 6.71226562 -2.45695312 5.80734375 -2.0625 4.875 C-1.68222656 3.96492187 -1.30195313 3.05484375 -0.91015625 2.1171875 C-0.60980469 1.41851562 -0.30945313 0.71984375 0 0 Z " fill="#76C732" transform="translate(365,139)"/>
<path d="M0 0 C-0.99 1.485 -0.99 1.485 -2 3 C-4.6015625 3.51171875 -4.6015625 3.51171875 -7.625 3.6875 C-9.12933594 3.78611328 -9.12933594 3.78611328 -10.6640625 3.88671875 C-11.82035156 3.94279297 -11.82035156 3.94279297 -13 4 C-10.56272708 2.37515139 -8.62713877 1.34310925 -5.9375 0.3125 C-5.24527344 0.04050781 -4.55304688 -0.23148437 -3.83984375 -0.51171875 C-2 -1 -2 -1 0 0 Z " fill="#B9ED89" transform="translate(376,85)"/>
<path d="M0 0 C0.66 0 1.32 0 2 0 C2 3.3 2 6.6 2 10 C1.01 9.67 0.02 9.34 -1 9 C-0.67 6.03 -0.34 3.06 0 0 Z " fill="#5E8D3F" transform="translate(324,256)"/>
<path d="M0 0 C0.36923077 5.41538462 0.36923077 5.41538462 -1.5 8.375 C-1.995 8.91125 -2.49 9.4475 -3 10 C-2.979375 9.21625 -2.95875 8.4325 -2.9375 7.625 C-2.81315937 5.01885039 -2.81315937 5.01885039 -4 3 C-1.125 0 -1.125 0 0 0 Z " fill="#67A439" transform="translate(324,180)"/>
<path d="M0 0 C0.66 0.99 1.32 1.98 2 3 C-0.97 5.475 -0.97 5.475 -4 8 C-5 6 -5 6 -4.8125 4 C-4 2 -4 2 -1.9375 0.75 C-1.298125 0.5025 -0.65875 0.255 0 0 Z " fill="#5BAD26" transform="translate(397,174)"/>
<path d="M0 0 C0 0.99 0 1.98 0 3 C-1.28650706 3.69710731 -2.57940665 4.38242876 -3.875 5.0625 C-4.95394531 5.63677734 -4.95394531 5.63677734 -6.0546875 6.22265625 C-6.69664062 6.47917969 -7.33859375 6.73570313 -8 7 C-8.66 6.67 -9.32 6.34 -10 6 C-6.7 4.02 -3.4 2.04 0 0 Z " fill="#C2EA98" transform="translate(345,96)"/>
<path d="M0 0 C-2.26562673 2.26562673 -3.84160705 2.94462749 -7.04296875 3.09765625 C-7.75066406 3.08605469 -8.45835937 3.07445312 -9.1875 3.0625 C-11.0746875 3.0315625 -11.0746875 3.0315625 -13 3 C-8.48166204 0.66292864 -5.11018582 -0.11355968 0 0 Z " fill="#E6A077" transform="translate(315,211)"/>
<path d="M0 0 C0.99 0.33 1.98 0.66 3 1 C0.03 4.96 0.03 4.96 -3 9 C-3.66 8.01 -4.32 7.02 -5 6 C-4.01 5.67 -3.02 5.34 -2 5 C-2 4.01 -2 3.02 -2 2 C-1.34 2 -0.68 2 0 2 C0 1.34 0 0.68 0 0 Z " fill="#92C367" transform="translate(348,139)"/>
<path d="M0 0 C0.66 0.33 1.32 0.66 2 1 C0.68 3.31 -0.64 5.62 -2 8 C-2.99 7.34 -3.98 6.68 -5 6 C-4.34 5.01 -3.68 4.02 -3 3 C-2.34 3 -1.68 3 -1 3 C-0.67 2.01 -0.34 1.02 0 0 Z " fill="#86DF3D" transform="translate(364,132)"/>
<path d="M0 0 C-2.85478326 1.90318884 -4.41941308 2.4619099 -7.6875 3.125 C-8.49574219 3.29257813 -9.30398438 3.46015625 -10.13671875 3.6328125 C-10.75160156 3.75398437 -11.36648438 3.87515625 -12 4 C-10 1 -10 1 -7.6875 0.3125 C-5.09355691 0.01087871 -2.60858859 -0.0745311 0 0 Z " fill="#E2A97E" transform="translate(287,230)"/>
<path d="M0 0 C0.33 0.66 0.66 1.32 1 2 C1.66 2 2.32 2 3 2 C3.33 1.34 3.66 0.68 4 0 C4 0.99 4 1.98 4 3 C3.01 3.33 2.02 3.66 1 4 C0.67 4.99 0.34 5.98 0 7 C-0.33 7 -0.66 7 -1 7 C-1.04254356 5.00045254 -1.04080783 2.99958364 -1 1 C-0.67 0.67 -0.34 0.34 0 0 Z " fill="#64B12E" transform="translate(331,196)"/>
<path d="M0 0 C1.12377697 3.30435084 0.89554742 5.0506862 -0.4375 8.25 C-0.72496094 8.95640625 -1.01242187 9.6628125 -1.30859375 10.390625 C-1.53675781 10.92171875 -1.76492188 11.4528125 -2 12 C-2.33 12 -2.66 12 -3 12 C-3.34833144 7.12335991 -2.41685712 4.22949995 0 0 Z " fill="#90D25A" transform="translate(405,150)"/>
<path d="M0 0 C2.97 0.495 2.97 0.495 6 1 C6 1.66 6 2.32 6 3 C5.01 3 4.02 3 3 3 C3 3.66 3 4.32 3 5 C2.34 5 1.68 5 1 5 C0.67 5.99 0.34 6.98 0 8 C0 5.36 0 2.72 0 0 Z " fill="#75C437" transform="translate(345,136)"/>
<path d="M0 0 C1.0326802 2.78823655 1.04509293 3.8677274 0.0625 6.75 C-0.288125 7.4925 -0.63875 8.235 -1 9 C-1.33 8.01 -1.66 7.02 -2 6 C-2.66 5.67 -3.32 5.34 -4 5 C-2.68 3.35 -1.36 1.7 0 0 Z " fill="#74C92E" transform="translate(370,127)"/>
<path d="M0 0 C0.66 0 1.32 0 2 0 C2 1.32 2 2.64 2 4 C-0.97 3.67 -3.94 3.34 -7 3 C-7 2.67 -7 2.34 -7 2 C-4.69 2 -2.38 2 0 2 C0 1.34 0 0.68 0 0 Z " fill="#D4692B" transform="translate(377,225)"/>
<path d="M0 0 C-0.66 0.66 -1.32 1.32 -2 2 C-0.35 2.33 1.3 2.66 3 3 C3 3.33 3 3.66 3 4 C0.69 4 -1.62 4 -4 4 C-4.66 2.68 -5.32 1.36 -6 0 C-3 -1 -3 -1 0 0 Z " fill="#E58744" transform="translate(348,221)"/>
<path d="M0 0 C0.66 0 1.32 0 2 0 C1.60196439 2.88575819 1.20990931 3.82189513 -1.0625 5.75 C-1.701875 6.1625 -2.34125 6.575 -3 7 C-2.25 2.25 -2.25 2.25 0 0 Z " fill="#91BB54" transform="translate(397,177)"/>
<path d="M0 0 C1 3 1 3 0.22265625 5.04296875 C-0.16019531 5.75066406 -0.54304688 6.45835937 -0.9375 7.1875 C-1.31777344 7.90292969 -1.69804687 8.61835938 -2.08984375 9.35546875 C-2.54037109 10.16951172 -2.54037109 10.16951172 -3 11 C-4.11651815 7.65044556 -3.99822121 6.32740404 -3 3 C-1.4375 1.1875 -1.4375 1.1875 0 0 Z " fill="#8AC664" transform="translate(410,158)"/>
<path d="M0 0 C0.66 0.33 1.32 0.66 2 1 C-0.475 4.465 -0.475 4.465 -3 8 C-3.66 6.68 -4.32 5.36 -5 4 C-4.01 3.67 -3.02 3.34 -2 3 C-2 2.34 -2 1.68 -2 1 C-1.34 0.67 -0.68 0.34 0 0 Z " fill="#8FCD6C" transform="translate(341,150)"/>
<path d="M0 0 C1.258125 -0.04125 2.51625 -0.0825 3.8125 -0.125 C4.52019531 -0.14820313 5.22789062 -0.17140625 5.95703125 -0.1953125 C8 0 8 0 11 2 C6.99799622 3.60080151 3.95443764 2.29279692 0 1 C0 0.67 0 0.34 0 0 Z " fill="#E39F72" transform="translate(373,229)"/>
<path d="M0 0 C2.31 1.65 4.62 3.3 7 5 C3 6 3 6 1 6 C0.67 4.02 0.34 2.04 0 0 Z " fill="#E3956C" transform="translate(385,222)"/>
<path d="M0 0 C0.99 0 1.98 0 3 0 C1.75023244 3.65316671 1.32901247 4.78065836 -2 7 C-2.125 4.625 -2.125 4.625 -2 2 C-1.34 1.34 -0.68 0.68 0 0 Z " fill="#8AC162" transform="translate(403,169)"/>
<path d="M0 0 C0.33 0.99 0.66 1.98 1 3 C1.66 3.33 2.32 3.66 3 4 C2.67 4.66 2.34 5.32 2 6 C1.34 6 0.68 6 0 6 C-0.33 7.32 -0.66 8.64 -1 10 C-1.125 3.375 -1.125 3.375 0 0 Z " fill="#9AD65E" transform="translate(312,138)"/>
<path d="M0 0 C1.32 0.33 2.64 0.66 4 1 C1.375 5.875 1.375 5.875 -2 7 C-2 6.34 -2 5.68 -2 5 C-1.34 5 -0.68 5 0 5 C0 3.35 0 1.7 0 0 Z " fill="#AED97D" transform="translate(356,129)"/>
<path d="M0 0 C1.65 0 3.3 0 5 0 C5 0.66 5 1.32 5 2 C4.01 2.33 3.02 2.66 2 3 C0.79117904 5.00016466 0.79117904 5.00016466 0 7 C-1.33332095 4.3333581 -0.67102033 2.83319697 0 0 Z " fill="#A6E576" transform="translate(366,121)"/>
</svg>
